<?xml version="1.0" encoding="UTF-8" standalone="no"?>
<svg width="24px" height="22px" viewBox="0 0 24 22" version="1.1" xmlns="http://www.w3.org/2000/svg" xmlns:xlink="http://www.w3.org/1999/xlink">
    <!-- Generator: Sketch 43.1 (39012) - http://www.bohemiancoding.com/sketch -->
    <title>query_2</title>
    <desc>Created with Sketch.</desc>
    <defs></defs>
    <g id="Page-1" stroke="none" stroke-width="1" fill="none" fill-rule="evenodd">
        <g id="query_2" fill-rule="nonzero">
            <path d="M17.1505927,19.5035405 L14.2551502,16.704273 C14.1152179,16.5670838 14.1102003,16.3425216 14.2451637,16.2028027 L14.2626522,16.1853378 C14.4000271,16.0431378 14.6274019,16.038127 14.7697943,16.1753892 L17.6677212,18.9796189 C17.7801543,19.0919 18.3872341,19.5609216 18.9693234,18.9796189 C19.5713857,18.3783703 19.0992206,17.7720865 18.9867876,17.6623351 L16.1787632,14.7683 C16.0413884,14.6261 16.0463572,14.3990568 16.1887253,14.2618432 C16.3311421,14.1271351 16.5559838,14.1320973 16.6908742,14.2717919 L19.4939296,17.1608405 C19.8062138,17.4727027 19.9761055,17.8868486 19.9761055,18.3284568 C19.9761055,18.7725459 19.8037294,19.1866676 19.4914452,19.5010108 C19.179161,19.812873 18.7619946,19.9850405 18.3197645,19.9850405 C17.8775589,19.9850649 17.4628525,19.8153784 17.1505927,19.5035405 Z" id="Fill-1" stroke="#29B6F6" stroke-width="0.5" fill="#29B6F6"></path>
            <path d="M9.29862246,16.5820189 C8.31432206,16.5820189 7.35747226,16.3899297 6.45810555,16.0081838 C5.5887226,15.6414216 4.80926658,15.1150432 4.13975913,14.4463919 C3.47025169,13.7777892 2.9430636,12.9993622 2.57585386,12.1311541 C2.19607578,11.233027 2.00121786,10.2774216 2.00121786,9.2945 C2.00121786,8.31152973 2.19356698,7.35597297 2.57585386,6.45782162 C2.94308796,5.58961351 3.47020298,4.81121081 4.13975913,4.14260811 C4.80924222,3.47400541 5.59125575,2.94752973 6.45810555,2.58081622 C7.35747226,2.20155135 8.31434641,2.00695676 9.29862246,2.00695676 C10.2828741,2.00695676 11.2397483,2.19904595 12.139115,2.58081622 C13.0085223,2.94755405 13.7879783,3.47395676 14.4574858,4.14260811 C15.1269689,4.81118649 15.654157,5.58963784 16.0213911,6.45782162 C16.4011448,7.35597297 16.5960027,8.31155405 16.5960027,9.2945 C16.5960027,10.2774703 16.4036536,11.2330027 16.0213911,12.1311541 C15.6541326,12.9993865 15.1270419,13.7777892 14.4574858,14.4463919 C13.7879783,15.1149703 13.0059892,15.6414459 12.139115,16.0081838 C11.2397727,16.3899054 10.2828741,16.5820189 9.29862246,16.5820189 Z M6.00787835,12.5030162 L6.00793605,12.5030162 C6.14697528,12.351536 6.1440618,12.1270511 6.00202255,11.975571 C4.54935101,10.4101394 4.62622644,8.19652712 5.98428207,6.61706353 C6.10560967,6.47685277 6.11146547,6.27479719 5.99610906,6.12892438 C5.83332931,5.91852618 5.50494286,5.91289149 5.33036497,6.11489237 C4.55817799,7.00979591 4.13803142,8.1208144 4.13803142,9.29351359 C4.13803142,10.4858521 4.59365895,11.6024506 5.39841343,12.5030162 C5.55813547,12.6825604 5.84815631,12.6825604 6.00787835,12.5030162 Z" id="Combined-Shape" fill="#29B6F6"></path>
            <rect id="Rectangle-11" fill="#FFFFFF" opacity="0.01" x="0" y="0" width="24" height="22"></rect>
        </g>
    </g>
</svg>