<?xml version="1.0" encoding="UTF-8" standalone="no"?>
<svg width="24px" height="22px" viewBox="0 0 24 22" version="1.1" xmlns="http://www.w3.org/2000/svg" xmlns:xlink="http://www.w3.org/1999/xlink">
    <!-- Generator: Sketch 43.1 (39012) - http://www.bohemiancoding.com/sketch -->
    <title>query_1</title>
    <desc>Created with Sketch.</desc>
    <defs></defs>
    <g id="Page-1" stroke="none" stroke-width="1" fill="none" fill-rule="evenodd">
        <g id="Group-6">
            <g id="搜索" transform="translate(2.000000, 2.000000)" stroke="#3D3D3D" stroke-width="0.5" fill="#000000">
                <path d="M7.29862246,14.5820189 C6.31432206,14.5820189 5.35747226,14.3899297 4.45810555,14.0081838 C3.5887226,13.6414216 2.80926658,13.1150432 2.13975913,12.4463919 C1.47025169,11.7777892 0.943063599,10.9993622 0.575853857,10.1311541 C0.196075778,9.23302703 0.00121786198,8.27742162 0.00121786198,7.2945 C0.00121786198,6.31152973 0.193566982,5.35597297 0.575853857,4.45782162 C0.943087957,3.58961351 1.47020298,2.81121081 2.13975913,2.14260811 C2.80924222,1.47400541 3.59125575,0.94752973 4.45810555,0.580816216 C5.35747226,0.201551351 6.31434641,0.00695675676 7.29862246,0.00695675676 C8.28287415,0.00695675676 9.23974831,0.199045946 10.139115,0.580816216 C11.0085223,0.947554054 11.7879783,1.47395676 12.4574858,2.14260811 C13.1269689,2.81118649 13.654157,3.58963784 14.0213911,4.45782162 C14.4011448,5.35597297 14.5960027,6.31155405 14.5960027,7.2945 C14.5960027,8.27747027 14.4036536,9.2330027 14.0213911,10.1311541 C13.6541326,10.9993865 13.1270419,11.7777892 12.4574858,12.4463919 C11.7879783,13.1149703 11.0059892,13.6414459 10.139115,14.0081838 C9.23977267,14.3899054 8.28287415,14.5820189 7.29862246,14.5820189 Z M7.29862246,0.645713514 C3.86103654,0.645713514 0.615799729,3.86158378 0.615799729,7.29454865 C0.615799729,10.7275135 3.86106089,13.9434081 7.29862246,13.9434081 C10.736184,13.9434081 13.9814208,10.7275135 13.9814208,7.29454865 C13.9814208,3.86411351 10.736184,0.645713514 7.29862246,0.645713514 Z M16.3197889,17.9850649 C15.8775589,17.9850649 15.4628525,17.8153784 15.1505927,17.5035405 L12.2551502,14.704273 C12.1152179,14.5670838 12.1102003,14.3425216 12.2451637,14.2028027 L12.2626522,14.1853378 C12.4000271,14.0431378 12.6274019,14.038127 12.7697943,14.1753892 L15.6677212,16.9796189 C15.7801543,17.0919 16.3872341,17.5609216 16.9693234,16.9796189 C17.5713857,16.3783703 17.0992206,15.7720865 16.9867876,15.6623351 L16.9818187,15.6573486 L14.1787632,12.7683 C14.0413884,12.6261 14.0463572,12.3990568 14.1887253,12.2618432 C14.3311421,12.1271351 14.5559838,12.1320973 14.6908742,12.2717919 L17.4939296,15.1608405 C17.8062138,15.4727027 17.9761055,15.8868486 17.9761055,16.3284568 C17.9761055,16.7725459 17.8037294,17.1866676 17.4914452,17.5010108 C17.179161,17.812873 16.7619946,17.9850405 16.3197645,17.9850405 L16.3197889,17.9850649 L16.3197889,17.9850649 Z" id="Fill-1"></path>
                <path d="M3.8260839,10.1486432 C3.69121786,10.3083081 3.44633018,10.3083081 3.31146414,10.1486432 C2.63194587,9.34778919 2.24722327,8.35482162 2.24722327,7.2945 C2.24722327,6.25164324 2.60198647,5.26363784 3.25400541,4.46781892 C3.40141543,4.28818378 3.67869824,4.29319459 3.81614614,4.4802973 C3.91355074,4.61001892 3.90860622,4.7897027 3.80615968,4.91438919 C2.6594452,6.31897297 2.59453315,8.28749189 3.82113938,9.6795973 C3.94107442,9.81430541 3.94353451,10.0139351 3.82613261,10.1486432 L3.8260839,10.1486432" id="Fill-2"></path>
            </g>
            <rect id="Rectangle-11" fill="#FFFFFF" opacity="0.01" x="0" y="0" width="24" height="22"></rect>
        </g>
    </g>
</svg>