<?xml version="1.0" encoding="UTF-8" standalone="no"?>
<svg width="24px" height="22px" viewBox="0 0 24 22" version="1.1" xmlns="http://www.w3.org/2000/svg" xmlns:xlink="http://www.w3.org/1999/xlink">
    <!-- Generator: Sketch 43.1 (39012) - http://www.bohemiancoding.com/sketch -->
    <title>task_1</title>
    <desc>Created with Sketch.</desc>
    <defs></defs>
    <g id="Page-1" stroke="none" stroke-width="1" fill="none" fill-rule="evenodd">
        <g id="task_1">
            <path d="M12.6487219,4.69983645 L12.6487219,3.84600792 C12.6487219,3.3872867 12.2671346,3 11.7963791,3 L5.84986329,3 C5.37722429,3 5,3.37739173 5,3.84295598 L5,19.9982215 L4.99878407,19.2004962 C4.99957085,19.1854988 5,11.4991107 5,11.4991107 L10.9489954,11.4991107 L10.9489954,12.3529393 C10.9489954,12.8116605 11.3285561,13.1989472 11.7967606,13.1989472 L17.7499282,13.1989472 C18.2183949,13.1989472 18.5977173,12.8201725 18.5977173,12.3529393 L18.5977173,5.54584438 C18.5976934,5.08712315 18.2181327,4.69983645 17.7499282,4.69983645 L12.6487219,4.69983645 Z" id="任务" stroke="#3D3D3D" stroke-width="1.2"></path>
            <g id="Rectangle-7" transform="translate(4.000000, 3.000000)">
                <g id="path-1-link" fill="#D8D8D8">
                    <rect id="path-1" x="0.700000763" y="0" width="1" height="17"></rect>
                </g>
                <rect id="Rectangle-path" stroke="#3D3D3D" x="1.20000076" y="0.5" width="1" height="16"></rect>
            </g>
            <rect id="Rectangle-11" fill="#FFFFFF" fill-rule="nonzero" opacity="0.01" x="0" y="0" width="24" height="22"></rect>
        </g>
    </g>
</svg>