<?xml version="1.0" encoding="UTF-8" standalone="no"?>
<svg width="24px" height="22px" viewBox="0 0 24 22" version="1.1" xmlns="http://www.w3.org/2000/svg" xmlns:xlink="http://www.w3.org/1999/xlink">
    <!-- Generator: Sketch 43.1 (39012) - http://www.bohemiancoding.com/sketch -->
    <title> warn_2</title>
    <desc>Created with Sketch.</desc>
    <defs></defs>
    <g id="Page-1" stroke="none" stroke-width="1" fill="none" fill-rule="evenodd">
        <g id="-warn_2" fill-rule="nonzero">
            <path d="M7.15788293,18.5416195 L5.87616585,18.5416195 L5.87616585,12.5961756 C5.96409878,9.28653171 8.67234878,6.64921707 11.9831707,6.64921707 C15.2939927,6.64921707 18.0022427,9.28653171 18.0901756,12.5961756 L18.0901756,18.5416195 L16.6792098,18.5416195 L7.15788293,18.5416195 Z M12.4247707,8.94918902 L9.41325732,13.9123506 L11.8237555,13.9123506 L11.2205945,17.6325866 L14.2342537,12.6715707 L11.8216098,12.6715707 L12.4247707,8.94918902 Z" id="Combined-Shape" fill="#29B6F6"></path>
            <path d="M17.0475604,3.49919878 C17.3298293,3.66408354 17.4260506,4.02587073 17.262975,4.30919146 L16.1794646,6.19188171 L15.1540573,5.59949146 L16.2397555,3.71461341 C16.3177171,3.57829634 16.4469659,3.47883537 16.5987238,3.43836098 C16.7504396,3.39792866 16.9120848,3.41980671 17.0475604,3.49919878 L17.0475604,3.49919878 Z" id="Path" fill="#29B6F6"></path>
            <path d="M11.9831707,2.1033372 C12.3386049,2.1033372 12.6229354,2.37045976 12.6229354,2.7000189 L12.6229354,4.83476951 L11.3390726,4.83476951 L11.3390726,2.7000189 C11.3390726,2.37045976 11.6255908,2.1033372 11.9831707,2.1033372 L11.9831707,2.1033372 Z" id="Path" fill="#29B6F6"></path>
            <path d="M6.92092683,3.49919878 C7.05669695,3.419975 7.21851037,3.39843354 7.37026829,3.43928659 C7.52202622,3.48018171 7.65110671,3.58010549 7.72873171,3.71680122 L8.81228415,5.60167927 L7.78687683,6.19188171 L6.70336646,4.30919146 C6.54066951,4.02532378 6.63790061,3.66336829 6.92092683,3.49919878 L6.92092683,3.49919878 Z" id="Path" fill="#29B6F6"></path>
            <path d="M3.21364939,7.21943476 C3.29165305,7.08320183 3.42073354,6.98365671 3.57232317,6.94280366 C3.72395488,6.90199268 3.88555793,6.92323963 4.02145427,7.00187439 L5.89770732,8.08971829 L5.3074628,9.11722927 L3.43120976,8.02938537 C3.14818354,7.86525793 3.05095244,7.50330244 3.21364939,7.21943476 L3.21364939,7.21943476 Z" id="Path" fill="#29B6F6"></path>
            <path d="M20.7526921,7.21943476 C20.914253,7.50376524 20.8151707,7.86567866 20.532986,8.02938537 L18.6588787,9.11722927 L18.0707799,8.08971829 L19.9448872,7.00187439 C20.0806573,6.92265061 20.2424707,6.90106707 20.3942287,6.94192012 C20.5459866,6.98281524 20.6751091,7.08273902 20.7526921,7.21943476 L20.7526921,7.21943476 Z" id="Path" fill="#29B6F6"></path>
            <path d="M3.78016463,18.0021586 L20.183989,18.0021586 C20.4259098,17.9823421 20.6584061,18.100147 20.7854671,18.3069787 C20.912486,18.5137683 20.912486,18.7744116 20.7854671,18.9812433 C20.6584061,19.1880329 20.4259098,19.3058799 20.183989,19.2860214 L3.78016463,19.2860214 C3.4256561,19.2860214 3.13825427,18.9986195 3.13825427,18.644111 C3.13825427,18.2895604 3.4256561,18.0021586 3.78016463,18.0021586" id="Fill-4" fill="#29B6F6"></path>
            <rect id="Rectangle-11" fill="#FFFFFF" opacity="0.01" x="0" y="0" width="24" height="22"></rect>
        </g>
    </g>
</svg>