<?xml version="1.0" encoding="UTF-8" standalone="no"?>
<svg width="24px" height="22px" viewBox="0 0 24 22" version="1.1" xmlns="http://www.w3.org/2000/svg" xmlns:xlink="http://www.w3.org/1999/xlink">
    <!-- Generator: Sketch 43.1 (39012) - http://www.bohemiancoding.com/sketch -->
    <title> warn_1</title>
    <desc>Created with Sketch.</desc>
    <defs></defs>
    <g id="Page-1" stroke="none" stroke-width="1" fill="none" fill-rule="evenodd">
        <g id="Group-5">
            <g id="预警" transform="translate(3.000000, 2.000000)">
                <path d="M4.15788293,16.5416195 L2.87616585,16.5416195 L2.87616585,10.5961756 C2.96409878,7.28653171 5.67234878,4.64921707 8.98317073,4.64921707 C12.2939927,4.64921707 15.0022427,7.28653171 15.0901756,10.5961756 L15.0901756,16.5416195 L13.6792098,16.5416195 L4.15788293,16.5416195 Z" id="Fill-3" stroke="#3D3D3D" stroke-width="1.2"></path>
                <polygon id="Path" fill="#3D3D3D" points="9.42477073 6.94918902 6.41325732 11.9123506 8.82375549 11.9123506 8.22059451 15.6325866 11.2342537 10.6715707 8.82160976 10.6715707"></polygon>
                <path d="M14.0475604,1.49919878 C14.3298293,1.66408354 14.4260506,2.02587073 14.262975,2.30919146 L13.1794646,4.19188171 L12.1540573,3.59949146 L13.2397555,1.71461341 C13.3177171,1.57829634 13.4469659,1.47883537 13.5987238,1.43836098 C13.7504396,1.39792866 13.9120848,1.41980671 14.0475604,1.49919878 L14.0475604,1.49919878 Z" id="Path" fill="#3D3D3D"></path>
                <path d="M8.98317073,0.103337195 C9.33860488,0.103337195 9.62293537,0.370459756 9.62293537,0.700018902 L9.62293537,2.83476951 L8.33907256,2.83476951 L8.33907256,0.700018902 C8.33907256,0.370459756 8.62559085,0.103337195 8.98317073,0.103337195 L8.98317073,0.103337195 Z" id="Path" fill="#3D3D3D"></path>
                <path d="M3.92092683,1.49919878 C4.05669695,1.419975 4.21851037,1.39843354 4.37026829,1.43928659 C4.52202622,1.48018171 4.65110671,1.58010549 4.72873171,1.71680122 L5.81228415,3.60167927 L4.78687683,4.19188171 L3.70336646,2.30919146 C3.54066951,2.02532378 3.63790061,1.66336829 3.92092683,1.49919878 L3.92092683,1.49919878 Z" id="Path" fill="#3D3D3D"></path>
                <path d="M0.21364939,5.21943476 C0.291653049,5.08320183 0.420733537,4.98365671 0.572323171,4.94280366 C0.723954878,4.90199268 0.885557927,4.92323963 1.02145427,5.00187439 L2.89770732,6.08971829 L2.3074628,7.11722927 L0.431209756,6.02938537 C0.148183537,5.86525793 0.050952439,5.50330244 0.21364939,5.21943476 L0.21364939,5.21943476 Z" id="Path" fill="#3D3D3D"></path>
                <path d="M17.7526921,5.21943476 C17.914253,5.50376524 17.8151707,5.86567866 17.532986,6.02938537 L15.6588787,7.11722927 L15.0707799,6.08971829 L16.9448872,5.00187439 C17.0806573,4.92265061 17.2424707,4.90106707 17.3942287,4.94192012 C17.5459866,4.98281524 17.6751091,5.08273902 17.7526921,5.21943476 L17.7526921,5.21943476 Z" id="Path" fill="#3D3D3D"></path>
                <path d="M0.780164634,16.0021586 L17.183989,16.0021586 C17.4259098,15.9823421 17.6584061,16.100147 17.7854671,16.3069787 C17.912486,16.5137683 17.912486,16.7744116 17.7854671,16.9812433 C17.6584061,17.1880329 17.4259098,17.3058799 17.183989,17.2860214 L0.780164634,17.2860214 C0.425656098,17.2860214 0.138254268,16.9986195 0.138254268,16.644111 C0.138254268,16.2895604 0.425656098,16.0021586 0.780164634,16.0021586" id="Fill-4" fill="#3D3D3D"></path>
            </g>
            <rect id="Rectangle-11" fill="#FFFFFF" opacity="0.01" x="0" y="0" width="24" height="22"></rect>
        </g>
    </g>
</svg>