<?xml version="1.0" encoding="UTF-8" standalone="no"?>
<svg width="20px" height="20px" viewBox="0 0 20 20" version="1.1" xmlns="http://www.w3.org/2000/svg" xmlns:xlink="http://www.w3.org/1999/xlink">
    <!-- Generator: Sketch 43.1 (39012) - http://www.bohemiancoding.com/sketch -->
    <title>business_selected</title>
    <desc>Created with Sketch.</desc>
    <defs></defs>
    <g id="Page-1" stroke="none" stroke-width="1" fill="none" fill-rule="evenodd">
        <g id="6权证入库-入库环节" transform="translate(-340.000000, -359.000000)" fill="#29B6F6">
            <g id="business_selected" transform="translate(340.000000, 359.000000)">
                <path d="M4.28705718,7.13693166 L2.85974895,8.56423989 L9.99620642,17.1279777 C9.99620642,17.1279777 14.2781032,7.13693166 19.9872803,2.85503487 L18.5599721,1.42775453 C18.5599721,1.42775453 11.4234868,7.13693166 8.56892608,11.4188006 L4.28705718,7.13693166" id="Fill-1"></path>
                <path d="M19.6483124,7.41112971 C19.546304,7.03043236 19.1549791,6.80449093 18.7742817,6.9065272 C18.4098466,7.00415621 18.1874477,7.36691771 18.2585774,7.73168759 C18.455007,8.45160391 18.56,9.2092887 18.56,9.99152022 C18.56,14.7211715 14.7258577,18.5552859 9.99623431,18.5552859 C5.26661088,18.5552859 1.43246862,14.7211715 1.43246862,9.99152022 C1.43246862,5.2618689 5.26658298,1.42775453 9.99620642,1.42775453 C10.7820084,1.42775453 11.5430126,1.53372385 12.2658577,1.73191074 C12.6310181,1.8037378 12.9944491,1.58125523 13.0921897,1.21642957 C13.194198,0.835704324 12.9682845,0.444407252 12.5875872,0.34237099 L12.5940865,0.34167364 C11.7657183,0.119191074 10.8948396,0.000474198047 9.99623431,0.000474198047 C4.47832636,0.000474198047 0.00518828452,4.47364017 0.00518828452,9.99152022 C0.00518828452,15.5094282 4.47832636,19.9825662 9.99623431,19.9825662 C15.5141423,19.9825662 19.9872803,15.5094282 19.9872803,9.99152022 C19.9872803,9.09788006 19.8698187,8.23171548 19.649735,7.4074477 L19.6483124,7.41112971" id="Fill-2"></path>
            </g>
        </g>
    </g>
</svg>