<?xml version="1.0" encoding="UTF-8" standalone="no"?>
<svg width="20px" height="20px" viewBox="0 0 20 20" version="1.1" xmlns="http://www.w3.org/2000/svg" xmlns:xlink="http://www.w3.org/1999/xlink">
    <!-- Generator: Sketch 43.1 (39012) - http://www.bohemiancoding.com/sketch -->
    <title>business_11</title>
    <desc>Created with Sketch.</desc>
    <defs></defs>
    <g id="Page-1" stroke="none" stroke-width="1" fill="none" fill-rule="evenodd">
        <g id="5查询-业务查询-业务详情" transform="translate(-15.000000, -594.000000)">
            <g id="business_11" transform="translate(15.000000, 594.000000)">
                <path d="M1.00452149,14.4105223 C0.963680752,14.5159892 1.1966471,16.5270176 1.82021269,18.0137104 C1.86223315,18.1122178 2.11820402,18.5160644 2.50018007,18.4778156 C4.08673317,18.3202377 5.12334074,18.4140772 7.45022349,18.8903474 C8.96486993,19.2008919 10.8217752,19.4390128 11.4723901,19.3671833 C13.4196281,19.1510724 17.7852333,15.9464688 17.9767971,15.34275 C17.9767971,15.34275 17.8617465,14.6103945 15.4773103,15.6144801 C15.0240174,15.8056954 14.4809817,16.0258519 13.8453099,16.3173003 C10.837898,17.6962347 8.74628491,16.3595663 7.41398928,15.4383436 C7.41398928,15.4383436 6.96990946,14.7778458 7.91792577,14.8195743 C7.91792577,14.8195743 12.1851368,15.5849165 12.9370108,13.8369046 C12.9370108,13.8369046 13.029057,13.424967 12.4491691,13.3733935 C12.4491691,13.3733935 10.6279362,13.4730608 9.42796569,12.9475652 C7.63029912,12.1595906 6.18812112,12.3472979 4.95247815,12.8664282 C3.32738758,14.0171149 3.01504301,14.252322 1.15580637,14.2737661 C1.15580637,14.2737661 1.04480046,14.3044896 1.00452149,14.4099282 L1.00452149,14.4105223 Z M10.4674383,2 C9.14056375,2 7.86804053,2.53089906 6.92979902,3.47588581 C5.99155752,4.42084426 5.46447606,5.70254425 5.46447606,7.03892972 C5.46447606,8.37545665 5.99164178,9.65721321 6.92999564,10.6022 C7.8683495,11.547215 9.14104125,12.0780292 10.4680001,12.0778877 C11.7948746,12.0778877 13.0673978,11.547017 14.0056393,10.6020302 C14.9439089,9.65704347 15.4709904,8.37534349 15.4709904,7.03892972 C15.4709904,5.70251596 14.9439089,4.42084426 14.0056393,3.47585752 C13.0673978,2.53087077 11.7948746,2 10.4680001,2 L10.4674383,2 Z" id="贷款" fill="#7656D8"></path>
                <text id="检" font-family=".PingFangSC-Regular, .PingFang SC" font-size="6" font-weight="normal" fill="#FFFFFF">
                    <tspan x="7.5" y="9">检</tspan>
                </text>
                <rect id="Rectangle-26" fill="#FFFFFF" opacity="0.01" x="0" y="0" width="20" height="20"></rect>
            </g>
        </g>
    </g>
</svg>