<?xml version="1.0" encoding="UTF-8" standalone="no"?>
<svg width="20px" height="20px" viewBox="0 0 20 20" version="1.1" xmlns="http://www.w3.org/2000/svg" xmlns:xlink="http://www.w3.org/1999/xlink">
    <!-- Generator: Sketch 43.1 (39012) - http://www.bohemiancoding.com/sketch -->
    <title>business_9</title>
    <desc>Created with Sketch.</desc>
    <defs></defs>
    <g id="Page-1" stroke="none" stroke-width="1" fill="none" fill-rule="evenodd">
        <g id="5查询-业务查询-业务详情" transform="translate(-15.000000, -494.000000)">
            <g id="business_9" transform="translate(15.000000, 494.000000)">
                <g id="权证数量" transform="translate(1.000000, 2.000000)">
                    <path d="M13.8665221,9.01750488 C11.5853707,9.01750488 9.73615495,10.8044329 9.73615495,13.0087732 C9.73615495,15.213072 11.5853707,17 13.8665221,17 C16.1476305,17 17.9968462,15.213072 17.9968462,13.0087732 C17.9968462,10.8044329 16.1476305,9.01750488 13.8665221,9.01750488 Z M12.3043194,13.415811 L15.6613516,13.415811 L15.6613516,12.415811 L12.3043194,12.415811 L12.3043194,13.415811 Z" id="Fill-1" fill="#29B6F6"></path>
                    <path d="M9.08691061,13.6149268 L3.14543027,13.6149268 L3.14543027,12.8595049 L9.04840048,12.8595049 C9.06515614,12.3287732 9.17358522,11.820411 9.35877712,11.3484744 L3.14540882,11.3484744 L3.14540882,10.592928 L9.73900834,10.592928 C10.5856305,9.23794512 12.1239762,8.33190732 13.8814541,8.33190732 C15.1751371,8.33190732 16.3501359,8.82279268 17.2178903,9.62235244 L17.2178903,2.2827061 C17.2178903,1.03109146 16.167733,0.0163573171 14.8724839,0.0163573171 L2.36368534,0.0163573171 C1.06824315,0.0163573171 0.0181716329,1.03109146 0.0181716329,2.2827061 L0.0181716329,14.3703902 C0.0181716329,15.6220878 1.06822169,16.6369256 2.36368534,16.6369256 L10.8395614,16.6369256 C9.89974255,15.9010122 9.25109893,14.8316293 9.08691061,13.6149268 Z M5.49085816,1.52726341 L11.7452038,1.52726341 L11.7452038,7.57111585 L8.63403576,6.06014756 L5.49085816,7.57111585 L5.49085816,1.52726341 L5.49085816,1.52726341 Z" id="Fill-2" fill="#29B6F6"></path>
                    <polyline id="Path-3" stroke="#FFFFFF" stroke-linecap="round" stroke-linejoin="round" points="13.0354138 11.3805896 11.9228135 12.8670372 13.0354138 14.4791477"></polyline>
                </g>
                <rect id="Rectangle-26" fill="#FFFFFF" opacity="0.01" x="0" y="0" width="20" height="20"></rect>
            </g>
        </g>
    </g>
</svg>