<?xml version="1.0" encoding="UTF-8" standalone="no"?>
<svg width="20px" height="20px" viewBox="0 0 20 20" version="1.1" xmlns="http://www.w3.org/2000/svg" xmlns:xlink="http://www.w3.org/1999/xlink">
    <!-- Generator: Sketch 43.1 (39012) - http://www.bohemiancoding.com/sketch -->
    <title>business_18</title>
    <desc>Created with Sketch.</desc>
    <defs></defs>
    <g id="Page-1" stroke="none" stroke-width="1" fill="none" fill-rule="evenodd">
        <g id="5查询-业务查询-业务详情" transform="translate(-15.000000, -944.000000)">
            <g id="business_18" transform="translate(15.000000, 944.000000)">
                <g id="档案借出" transform="translate(1.000000, 5.000000)" fill="#09A057">
                    <path d="M15.3513389,6.08881765 L15.2663347,5.93656471 C14.8537155,5.82897059 10.3195983,5.56012549 7.85334728,11.0969784 C7.77135565,11.2810686 7.53808368,10.436349 7.52276987,9.86223333 C7.45441004,7.30026471 8.31150628,5.65454118 9.41528033,4.58239804 L0.559230126,4.58239804 C0.169958159,4.58239804 -0.0690125523,4.81795294 0.0248786611,5.11103922 L2.38001674,12.4613667 C2.47478661,12.753051 2.86548954,12.9898549 3.25335565,12.9898549 L17.3653556,12.9898549 C17.7533975,12.9898549 17.9922176,12.753051 17.8999833,12.4613667 L16.2654979,7.36184902 L15.3410711,8.26947843 L15.3513389,6.08881765 Z M17.9886025,1.61781176 C17.988477,1.61781176 17.9185607,0.00978823529 16.8979331,0.00978823529 L13.2022594,0.00978823529 C12.3960753,-0.0409117647 11.9318912,1.29202157 11.6941757,2.34344118 L3.17359833,2.34344118 C2.78432636,2.34344118 2.46896234,2.66278235 2.46896234,3.05739608 L2.46896234,3.86732157 L10.1414561,3.86732157 C12.9776485,1.90136471 15.4438494,2.30477255 15.4438494,2.30477255 L15.448569,0.178456863 L17.9886025,2.76446275 L17.9886025,1.61781176 Z M16.822795,6.79331569 L17.9886025,10.4289059 L17.9886025,5.60246471 L16.822795,6.79331569 L16.822795,6.79331569 Z" id="Fill-1"></path>
                    <path d="M8.20958159,9.03805882 C9.11387448,3.25084118 14.2381255,3.05609608 16.076159,3.17748039 L16.076159,2.00245882 L17.9886276,4.07162549 L16.076159,6.26092745 L16.076159,5.0190451 C16.076159,5.0190451 10.5833222,3.80382549 8.0999749,9.60842745 C8.05016736,9.72361765 8.19554812,9.16257843 8.20958159,9.03805882" id="Fill-2"></path>
                </g>
                <rect id="Rectangle-26" fill="#FFFFFF" opacity="0.01" x="0" y="0" width="20" height="20"></rect>
            </g>
        </g>
    </g>
</svg>