<?xml version="1.0" encoding="UTF-8" standalone="no"?>
<svg width="20px" height="20px" viewBox="0 0 20 20" version="1.1" xmlns="http://www.w3.org/2000/svg" xmlns:xlink="http://www.w3.org/1999/xlink">
    <!-- Generator: Sketch 43.1 (39012) - http://www.bohemiancoding.com/sketch -->
    <title>business_19</title>
    <desc>Created with Sketch.</desc>
    <defs></defs>
    <g id="Page-1" stroke="none" stroke-width="1" fill="none" fill-rule="evenodd">
        <g id="5审批详情页-五级分类" transform="translate(-15.000000, -235.000000)">
            <g id="business_19" transform="translate(15.000000, 235.000000)">
                <path d="M1.00452767,14.4037302 C0.963631113,14.5093413 1.19691587,16.5231183 1.82133371,18.0118429 C1.8634116,18.110485 2.11973231,18.5148835 2.50223043,18.4765825 C4.09095193,18.3187892 5.12897628,18.4127569 7.45903927,18.889678 C8.97575584,19.200647 10.835199,19.4390934 11.4867031,19.3671657 C13.4366025,19.1507594 17.8081743,15.941776 18,15.3372321 C18,15.3372321 17.8847921,14.6038756 15.497097,15.6093335 C15.0431846,15.8008101 14.4994067,16.0212675 13.8628661,16.3131143 C10.8513439,17.6939333 8.75687207,16.3554381 7.42275553,15.4329562 C7.42275553,15.4329562 6.97806877,14.7715558 7.92738078,14.8133413 C7.92738078,14.8133413 12.200424,15.5797295 12.9533256,13.8293286 C12.9533256,13.8293286 13.0454976,13.4168279 12.4648171,13.3651839 C12.4648171,13.3651839 10.6410951,13.4649875 9.43948453,12.9387737 C7.63936102,12.1497221 6.19521193,12.337686 4.95788016,12.8575257 C3.33056851,14.0097852 3.01779705,14.2453137 1.15601931,14.2667872 C1.15601931,14.2667872 1.04486169,14.2975526 1.00452767,14.4031353 L1.00452767,14.4037302 Z M10.4803778,1.97624597 C9.15168978,1.97624597 7.87742735,2.50787063 6.93790352,3.45414893 C5.99837968,4.4003989 5.47057784,5.68385063 5.47057784,7.0220626 C5.47057784,8.36041621 5.99846406,9.6439246 6.9381004,10.5902029 C7.87773675,11.5365095 9.15216794,12.0680492 10.4809404,12.0679076 C11.8096284,12.0679076 13.0838908,11.5363112 14.0234147,10.5900329 C14.9629666,9.64375463 15.4907685,8.36030289 15.4907685,7.0220626 C15.4907685,5.6838223 14.9629666,4.4003989 14.0234147,3.4541206 C13.0838908,2.5078423 11.8096284,1.97624597 10.4809404,1.97624597 L10.4803778,1.97624597 Z" id="贷款" fill="#FFB41C"></path>
                <text id="检" font-family=".PingFangSC-Regular, .PingFang SC" font-size="6" font-weight="normal" fill="#FFFFFF">
                    <tspan x="7.5" y="9">检</tspan>
                </text>
                <rect id="Rectangle-27" fill="#FFFFFF" opacity="0.01" x="0" y="0" width="20" height="20"></rect>
            </g>
        </g>
    </g>
</svg>