<?xml version="1.0" encoding="UTF-8" standalone="no"?>
<svg width="20px" height="20px" viewBox="0 0 20 20" version="1.1" xmlns="http://www.w3.org/2000/svg" xmlns:xlink="http://www.w3.org/1999/xlink">
    <!-- Generator: Sketch 43.1 (39012) - http://www.bohemiancoding.com/sketch -->
    <title>business_6</title>
    <desc>Created with Sketch.</desc>
    <defs></defs>
    <g id="Page-1" stroke="none" stroke-width="1" fill="none" fill-rule="evenodd">
        <g id="5查询-业务查询-业务详情" transform="translate(-15.000000, -344.000000)">
            <g id="business_6" transform="translate(15.000000, 344.000000)">
                <path d="M9.76634149,5 C2.97908784,5 0.5,10.9996597 0.5,10.9996597 C0.5,10.9996597 3.01314018,17 9.76634149,17 C16.3491904,17 19.0332044,10.9996597 19.0332044,10.9996597 C19.0332044,10.9996597 16.4519596,5 9.76634149,5 Z M9.76742972,14.8195884 C7.65992507,14.8195884 5.95163996,13.1097201 5.95163996,11.0007713 C5.95163996,8.89288888 7.65992507,7.18295251 9.76742972,7.18295251 C11.8749117,7.18295251 13.5831515,8.89291156 13.5831515,11.0007713 C13.5831515,13.1097201 11.874889,14.8195884 9.76742972,14.8195884 Z M9.76742972,8.2733625 C8.26198504,8.2733625 7.04185913,9.49485581 7.04185913,11.000794 C7.04185913,12.5077532 8.26200772,13.7286566 9.76742972,13.7286566 C11.272829,13.7286566 12.492955,12.5077532 12.492955,11.000794 C12.4929323,9.49483312 11.272829,8.2733625 9.76742972,8.2733625 L9.76742972,8.2733625 Z" id="查看" fill="#FF2244"></path>
                <rect id="Rectangle-26" fill="#FFFFFF" opacity="0.01" x="0" y="0" width="20" height="20"></rect>
            </g>
        </g>
    </g>
</svg>