<?xml version="1.0" encoding="UTF-8" standalone="no"?>
<svg width="20px" height="20px" viewBox="0 0 20 20" version="1.1" xmlns="http://www.w3.org/2000/svg" xmlns:xlink="http://www.w3.org/1999/xlink">
    <!-- Generator: Sketch 43.1 (39012) - http://www.bohemiancoding.com/sketch -->
    <title>business_3</title>
    <desc>Created with Sketch.</desc>
    <defs></defs>
    <g id="Page-1" stroke="none" stroke-width="1" fill="none" fill-rule="evenodd">
        <g id="5查询-业务查询-业务详情" transform="translate(-15.000000, -196.000000)">
            <g id="business_3" transform="translate(15.000000, 196.000000)">
                <g id="安全保障-担保" transform="translate(2.000000, 0.500000)" fill="#FF2244">
                    <polygon id="Fill-1" points="7.24748744 6.67499861 10.0375628 6.67499861 10.0375628 5.054 7.24748744 5.054"></polygon>
                    <path d="M14.9834673,1.12686648 C14.9834673,1.12686648 11.3848995,0.0107816412 7.71638191,0.0107816412 C3.90246231,0.0107816412 0.0121105528,1.12686648 0.0121105528,1.12686648 C0.0121105528,1.12686648 -0.178693467,13.1944033 1.37379397,14.8270556 C2.92610553,16.4596815 5.74738693,18.9839068 7.4879397,18.9839068 C9.22831658,18.9839068 12.1547739,16.3638623 13.6187186,14.8243338 C15.0825126,13.2848053 14.9834673,1.12686648 14.9834673,1.12686648 Z M4.91565327,13.4269485 L4.06241206,13.4269485 L4.0668593,13.3505786 C4.09266332,12.9091655 4.10577889,12.2478122 4.10577889,11.384911 L4.10577889,7.7488025 C3.79060302,8.30255076 3.50404523,8.75286926 3.25231156,9.08982197 L3.1888191,9.17485953 L3.13876884,9.08038804 C3.01346734,8.843879 2.84907035,8.64433936 2.65015075,8.48729207 L2.59233668,8.44162865 L2.6388191,8.38349235 C3.17788945,7.70895271 3.64070352,6.93418081 4.01442211,6.08073992 C4.38736181,5.22766898 4.64178392,4.46640056 4.77060302,3.81812796 L4.79258794,3.7073783 L4.87861809,3.7753185 C5.07982412,3.93416273 5.36113065,4.06832545 5.71482412,4.17408067 L5.80829146,4.20203894 L5.75173367,4.28517385 C5.62570352,4.47036439 5.48346734,4.74262726 5.32894472,5.09432545 C5.17452261,5.44634075 5.04540201,5.77179833 4.94497487,6.06189847 L4.94497487,11.3438985 C4.94497487,12.2172378 4.95809045,12.8924381 4.98386935,13.35079 L4.98816583,13.426975 L4.91565327,13.426975 L4.91565327,13.4269485 Z M12.063191,11.8905382 C11.861005,12.0764423 11.6688191,12.3327441 11.4919347,12.6524145 L11.4585678,12.7126648 L11.4002764,12.6795007 C10.77,12.320879 10.2441457,11.8586954 9.83728643,11.305872 C9.50972362,10.861975 9.24334171,10.4123435 9.04263819,9.96511683 L9.04263819,11.8774047 C9.04263819,12.5044576 9.05572864,12.999726 9.08148241,13.3494159 L9.0871608,13.4269221 L8.12035176,13.4269221 L8.12550251,13.3499179 C8.15130653,12.9638665 8.16437186,12.4960542 8.16437186,11.9594826 L8.16437186,9.75233797 C7.55821608,10.9519277 6.79613065,11.9604868 5.8961809,12.7534659 L5.83763819,12.8049958 L5.79530151,12.7381919 C5.6479397,12.5056996 5.42188442,12.3212754 5.12339196,12.1900459 L4.99155779,12.1320946 L5.11713568,12.0604284 C5.98570352,11.5648428 6.72067839,10.6992726 7.30281407,9.48673435 L6.86688442,9.48673435 C6.32984925,9.48673435 5.87190955,9.50050209 5.50580402,9.52758832 L5.43258794,9.53300556 L5.43258794,8.59870236 L5.50590452,8.60425174 C5.86386935,8.63139082 6.29555276,8.6451057 6.78879397,8.6451057 L8.16434673,8.6451057 L8.16434673,7.47561474 L6.36424623,7.47561474 L6.36937186,7.39858414 C6.39517588,7.01311405 6.40824121,6.49007232 6.40824121,5.84399305 C6.40824121,5.1702726 6.39520101,4.66131572 6.36944724,4.33123366 L6.36336683,4.25338387 L10.920603,4.25338387 L10.9157035,4.33017663 C10.8898995,4.73409179 10.8768342,5.27103338 10.8768342,5.92607093 C10.8768342,6.55365229 10.8898995,7.0488943 10.9156533,7.39808206 L10.9213568,7.47561474 L9.04263819,7.47561474 L9.04263819,8.6451057 L10.145,8.6451057 C10.8455528,8.6451057 11.3954523,8.63139082 11.7794472,8.60422531 L11.8524372,8.59907232 L11.8524372,9.53208067 L11.7800754,9.52769402 C11.3342714,9.50052851 10.8103769,9.48676078 10.2230402,9.48676078 L9.66678392,9.48676078 C9.89281407,9.98298053 10.2006281,10.4311321 10.5828894,10.820249 C10.9893719,11.2351836 11.4801256,11.5543255 12.0415327,11.7687955 L12.1504271,11.8103894 L12.063191,11.8905382 L12.063191,11.8905382 Z" id="Fill-2"></path>
                </g>
                <rect id="Rectangle-26" fill="#FFFFFF" opacity="0.01" x="0" y="0" width="20" height="20"></rect>
            </g>
        </g>
    </g>
</svg>