<?xml version="1.0" encoding="UTF-8" standalone="no"?>
<svg width="20px" height="20px" viewBox="0 0 20 20" version="1.1" xmlns="http://www.w3.org/2000/svg" xmlns:xlink="http://www.w3.org/1999/xlink">
    <!-- Generator: Sketch 43.1 (39012) - http://www.bohemiancoding.com/sketch -->
    <title>business_4</title>
    <desc>Created with Sketch.</desc>
    <defs></defs>
    <g id="Page-1" stroke="none" stroke-width="1" fill="none" fill-rule="evenodd">
        <g id="5查询-业务查询-业务详情" transform="translate(-15.000000, -244.000000)">
            <g id="business_4" transform="translate(15.000000, 244.000000)">
                <path d="M2.86935908,15.5974158 C1.42292511,13.0980618 2.27515371,9.90037961 4.77399932,8.45090461 L13.4496365,3.45503068 C15.2720504,2.40392126 17.6021519,3.0280839 18.6540598,4.84911446 C19.7059676,6.67016366 19.0813309,8.99849649 17.258917,10.0496059 L10.2403081,14.0938919 C9.50040139,14.58214 8.55025493,14.6190737 7.77461794,14.1897219 C6.99899961,13.76037 6.52640791,12.935878 6.54823792,12.0501405 C6.57008659,11.1643845 7.08271862,10.3641482 7.87856237,9.97346395 L14.0686385,6.40497191 L15.020968,8.05123395 L8.74517639,11.657797 C8.28805228,11.9242379 8.74517639,12.7426147 9.22133178,12.4856822 L16.3065875,8.40332522 C17.1679773,7.8561808 17.444584,6.72777351 16.9337805,5.84475808 C16.4229769,4.96174264 15.3063813,4.63804614 14.4019473,5.11080114 L5.73584442,10.0971853 C4.18932826,11.0382021 3.67749853,13.0408249 4.58308937,14.607589 C5.48868022,16.1743719 7.48039794,16.7321433 9.06896952,15.8638566 L16.9065583,11.3437767 L17.8588691,12.9900387 L10.0212803,17.5101187 C7.52004646,18.9554547 4.31991649,18.103873 2.86935908,15.6069242 L2.86935908,15.5974158" id="附件" fill="#29B6F6"></path>
                <rect id="Rectangle-26" fill="#FFFFFF" opacity="0.01" x="0" y="0" width="20" height="20"></rect>
            </g>
        </g>
    </g>
</svg>