<?xml version="1.0" encoding="UTF-8" standalone="no"?>
<svg width="20px" height="20px" viewBox="0 0 20 20" version="1.1" xmlns="http://www.w3.org/2000/svg" xmlns:xlink="http://www.w3.org/1999/xlink">
    <!-- Generator: Sketch 43.1 (39012) - http://www.bohemiancoding.com/sketch -->
    <title>business_10</title>
    <desc>Created with Sketch.</desc>
    <defs></defs>
    <g id="Page-1" stroke="none" stroke-width="1" fill="none" fill-rule="evenodd">
        <g id="5查询-业务查询-业务详情" transform="translate(-15.000000, -544.000000)">
            <g id="business_10" transform="translate(15.000000, 544.000000)">
                <g id="已出账单" transform="translate(3.000000, 1.000000)" fill="#09A057">
                    <path d="M6.72986926,14.6933398 C6.72986926,12.3300501 8.62011661,10.4142535 10.9518339,10.4142535 C12.10953,10.4142535 13.1582438,10.8866407 13.920947,11.6514401 L13.920947,0.640002786 C13.920947,0.299958217 13.6489859,0.0242924791 13.3134558,0.0242924791 L0.617236749,0.0242924791 C0.281731449,0.0242924791 0.00977031802,0.299958217 0.00977031802,0.640002786 L0.00977031802,17.3800279 C0.00977031802,17.7200975 0.281731449,17.9957382 0.617236749,17.9957382 L8.26682686,17.9957382 C7.32818375,17.210883 6.72986926,16.0229331 6.72986926,14.6933398 Z M1.67020495,2.89070474 C1.67020495,2.7773649 1.76085866,2.68548468 1.87271025,2.68548468 L12.0580318,2.68548468 C12.1698834,2.68548468 12.2605371,2.7773649 12.2605371,2.89070474 L12.2605371,3.7116351 C12.2605371,3.82497493 12.1698834,3.91685515 12.0580318,3.91685515 L1.87271025,3.91685515 C1.76085866,3.91685515 1.67020495,3.82497493 1.67020495,3.7116351 L1.67020495,2.89070474 Z M1.67020495,5.53818384 C1.67020495,5.42484401 1.76085866,5.33296379 1.87271025,5.33296379 L12.0580318,5.33296379 C12.1698834,5.33296379 12.2605371,5.42484401 12.2605371,5.53818384 L12.2605371,6.35911421 C12.2605371,6.47245404 12.1698834,6.56435933 12.0580318,6.56435933 L1.87271025,6.56435933 C1.76085866,6.56435933 1.67020495,6.47245404 1.67020495,6.35911421 L1.67020495,5.53818384 Z M1.67020495,9.00659331 L1.67020495,8.18566295 C1.67020495,8.07232312 1.76085866,7.9804429 1.87271025,7.9804429 L12.0580318,7.9804429 C12.1698834,7.9804429 12.2605371,8.07232312 12.2605371,8.18566295 L12.2605371,9.00659331 C12.2605371,9.11995822 12.1698834,9.21183844 12.0580318,9.21183844 L1.87271025,9.21183844 C1.76085866,9.21183844 1.67020495,9.11995822 1.67020495,9.00659331 L1.67020495,9.00659331 Z" id="Fill-1"></path>
                    <path d="M10.8468587,11.4283203 C9.11429682,11.4283203 7.70979505,12.8518747 7.70979505,14.6078273 C7.70979505,16.3638802 9.11429682,17.7874345 10.8468587,17.7874345 C12.5794452,17.7874345 13.983947,16.3638802 13.983947,14.6078273 C13.983947,12.8518496 12.5794205,11.4283203 10.8468587,11.4283203 M10.4402403,16.0051086 L9.07902473,14.6173036 L9.32664664,14.3677855 L10.4402403,15.5032396 L12.4819647,13.4215822 L12.7296113,13.6710251 L10.4402403,16.0051086" id="Fill-2"></path>
                </g>
                <rect id="Rectangle-26" fill="#FFFFFF" opacity="0.01" x="0" y="0" width="20" height="20"></rect>
            </g>
        </g>
    </g>
</svg>