<?xml version="1.0" encoding="UTF-8" standalone="no"?>
<svg width="20px" height="20px" viewBox="0 0 20 20" version="1.1" xmlns="http://www.w3.org/2000/svg" xmlns:xlink="http://www.w3.org/1999/xlink">
    <!-- Generator: Sketch 43.1 (39012) - http://www.bohemiancoding.com/sketch -->
    <title>business_1</title>
    <desc>Created with Sketch.</desc>
    <defs></defs>
    <g id="Page-1" stroke="none" stroke-width="1" fill="none" fill-rule="evenodd">
        <g id="5查询-业务查询-业务详情" transform="translate(-15.000000, -94.000000)">
            <g id="business_1" transform="translate(15.000000, 94.000000)">
                <g id="业务" transform="translate(1.000000, 1.000000)" fill="#7656D8">
                    <path d="M13.7116098,8.55921951 C14.1611707,8.55921951 14.6107317,8.67160976 15.0602927,8.784 L15.0602927,4.96273171 L10.0027317,0.0175609756 L0,0.0175609756 L0,17.100878 L9.66556098,17.100878 C8.99121951,16.0893659 8.54165854,14.9654634 8.54165854,13.7291707 C8.54165854,10.8070244 10.9018537,8.55921951 13.7116098,8.55921951 Z M9.44078049,1.92819512 L13.2620488,5.74946341 L9.44078049,5.74946341 L9.44078049,1.92819512 Z M2.92214634,6.9857561 L6.74341463,6.9857561 L6.74341463,5.86185366 L2.92214634,5.86185366 L2.92214634,6.9857561 Z M6.63102439,11.8185366 L2.92214634,11.8185366 L2.92214634,10.6946341 L6.74341463,10.6946341 L6.63102439,11.8185366 Z M2.92214634,9.34595122 L7.64253659,9.34595122 L7.64253659,8.22204878 L2.92214634,8.22204878 L2.92214634,9.34595122 Z" id="Fill-1"></path>
                    <path d="M13.374439,13.5043902 L15.7346341,10.0202927 C15.0602927,9.68312195 14.3859512,9.45834146 13.7116098,9.45834146 C11.3514146,9.45834146 9.44078049,11.3689756 9.44078049,13.7291707 C9.44078049,16.0893659 11.2390244,18 13.4868293,18 L13.7116098,18 C16.0718049,18 17.8700488,16.2017561 17.982439,13.841561 L13.374439,13.5043902" id="Fill-2"></path>
                </g>
                <rect id="Rectangle-26" fill="#FFFFFF" opacity="0.01" x="0" y="0" width="20" height="20"></rect>
            </g>
        </g>
    </g>
</svg>