<?xml version="1.0" encoding="UTF-8" standalone="no"?>
<svg width="20px" height="20px" viewBox="0 0 20 20" version="1.1" xmlns="http://www.w3.org/2000/svg" xmlns:xlink="http://www.w3.org/1999/xlink">
    <!-- Generator: Sketch 43.1 (39012) - http://www.bohemiancoding.com/sketch -->
    <title>business_16</title>
    <desc>Created with Sketch.</desc>
    <defs></defs>
    <g id="Page-1" stroke="none" stroke-width="1" fill="none" fill-rule="evenodd">
        <g id="5查询-业务查询-业务详情" transform="translate(-15.000000, -844.000000)">
            <g id="business_16" transform="translate(15.000000, 844.000000)">
                <path d="M16.4839084,6.29408707 C16.4839084,5.00080299 15.3961363,3.94304295 14.0625376,3.94304295 C12.7357155,3.94304295 11.6483306,5.00080299 11.6483306,6.29408707 L11.6483306,7.70992111 L13.6036701,7.70992111 C14.6685741,7.70992111 15.5313441,8.56107848 15.5313441,9.61184489 L15.5313441,11.6497679 C15.3949531,11.6357161 15.2565614,11.6273022 15.116212,11.6273022 C12.9615352,11.6273022 11.2143533,13.3745699 11.2143533,15.5302227 C11.2143533,16.1372485 11.3567894,16.7089618 11.6034334,17.2213261 L4.92765253,17.2213261 C3.8631357,17.2213261 3,16.3695232 3,15.3183909 L3,9.61186641 C3,8.5611 3.8631357,7.70994262 4.92765253,7.70994262 L10.6764908,7.70994262 L10.6764908,6.29410859 C10.6764908,4.47582865 12.1962181,3 14.0625376,3 C15.9280182,3 17.447767,4.47582865 17.447767,6.29410859 L17.447767,7.70994262 L16.4839084,7.70994262 L16.4839084,6.29408707 Z M9.26583341,9.61186641 C9.19806815,9.61186641 9.13628345,9.62529419 9.07893038,9.64896494 C8.37281645,9.74403531 7.81972292,10.3163727 7.81972292,11.0387181 C7.81972292,11.6569983 8.22483005,12.170955 8.78334481,12.3687134 L8.78334481,13.8917114 C8.78334481,14.1548872 8.99913949,14.3671278 9.26583341,14.3671278 C9.53259186,14.3671278 9.74795629,14.1548872 9.74795629,13.8917114 L9.74795629,12.3687134 C10.3082781,12.1709334 10.7117718,11.6582033 10.7117718,11.0387181 C10.7117718,10.2511705 10.0644093,9.61186641 9.26583341,9.61186641 Z M15.1161905,12.6451663 C16.7089106,12.6451663 18,13.9366643 18,15.5302227 C18,17.1233937 16.7089106,18.4149133 15.1161905,18.4149133 C13.5234489,18.4149133 12.232338,17.1233937 12.232338,15.5302227 C12.232338,13.9366428 13.5234274,12.6451663 15.1161905,12.6451663 Z M14.8125376,17.002264 L17.1593452,14.6612262 L16.6904526,14.1874237 L14.8093538,16.0517971 L13.7709104,15.0034623 L13.2976078,15.4728534 L14.8125376,17.002264 L14.8125376,17.002264 Z" id="仓单解押确认" fill="#7656D8"></path>
                <rect id="Rectangle-26" fill="#FFFFFF" opacity="0.01" x="0" y="0" width="20" height="20"></rect>
            </g>
        </g>
    </g>
</svg>