<?xml version="1.0" encoding="UTF-8" standalone="no"?>
<svg width="20px" height="20px" viewBox="0 0 20 20" version="1.1" xmlns="http://www.w3.org/2000/svg" xmlns:xlink="http://www.w3.org/1999/xlink">
    <!-- Generator: Sketch 43.1 (39012) - http://www.bohemiancoding.com/sketch -->
    <title>business_15</title>
    <desc>Created with Sketch.</desc>
    <defs></defs>
    <g id="Page-1" stroke="none" stroke-width="1" fill="none" fill-rule="evenodd">
        <g id="5查询-业务查询-业务详情" transform="translate(-15.000000, -794.000000)">
            <g id="business_15" transform="translate(15.000000, 794.000000)">
                <path d="M17.62976,5.39974559 C17.62976,4.62985869 16.9955781,4 16.2206846,4 L3.40734859,4 C2.63343521,4 2,4.62985869 2,5.39974559 L2,6.96354555 L17.62976,6.96354555 L17.62976,5.39974559 Z M14.5222055,10.1822816 C15.7131897,10.1822816 16.8006588,10.6246196 17.62976,11.353662 L17.62976,9.06303563 L2,9.06303563 L2,14.9494922 C2,15.7193091 2.63352855,16.349541 3.40734859,16.349541 L10.046809,16.349541 C9.89648337,15.8893817 9.81488002,15.3981516 9.81488002,14.8878173 C9.81488002,12.2890029 11.922426,10.1822816 14.5222055,10.1822816 Z M18.3515191,13.298055 C18.1333813,12.8013899 17.8324266,12.3626209 17.4572192,11.9897022 C17.0788616,11.6170634 16.6399256,11.319139 16.1346943,11.1012473 C15.6320531,10.8830991 15.0993095,10.7756112 14.5331731,10.7756112 C13.9534556,10.7756112 13.4122413,10.8830758 12.9096935,11.1012473 C12.407379,11.3192556 11.9655495,11.6170634 11.5901554,11.9897022 C11.2118911,12.3626209 10.9136433,12.8013899 10.6927752,13.298055 C10.4717205,13.7974027 10.3614614,14.3274012 10.3614614,14.8877939 C10.3614614,15.4616927 10.4718372,15.9973128 10.6927752,16.4940479 C10.9136667,16.9934422 11.2118911,17.429482 11.5901554,17.80499 C11.9655728,18.1774188 12.4072623,18.4698382 12.9096935,18.6824348 C13.4122413,18.8954512 13.9534556,19 14.5331731,19 C15.0993095,19 15.6320531,18.8954512 16.1346943,18.6824348 C16.6399256,18.4698382 17.0788616,18.1774188 17.4572192,17.80499 C17.8324266,17.4295054 18.1333813,16.9934422 18.3515191,16.4940479 C18.5725972,15.9973128 18.6829496,15.461716 18.6829496,14.8877939 C18.6829496,14.3274012 18.5726206,13.7974027 18.3515191,13.298055 Z M16.8617971,16.8183311 C16.6184339,16.1505437 15.9775781,15.6735194 15.2252498,15.6735194 L15.2252498,17.4187752 C15.2252498,17.6600166 15.0295371,17.8555616 14.788204,17.8555616 C14.6373183,17.8555616 14.5042374,17.7790744 14.4257843,17.6626991 L11.9808574,15.2188418 C11.8837361,15.1386457 11.8217577,15.0174186 11.8217577,14.8817057 C11.8217577,14.760222 11.8715084,14.6503781 11.951455,14.5711851 L11.9509183,14.5706719 L14.4942732,12.0283073 L14.4971668,12.0311065 C14.5744298,11.9619905 14.6764515,11.919933 14.788204,11.919933 C15.0295371,11.919933 15.2252498,12.1156413 15.2252498,12.3568126 L15.2252498,13.6768987 C16.3283768,13.6768987 17.2227,14.5707652 17.2227,15.6734728 C17.2225834,16.099459 17.0890824,16.4942345 16.8617971,16.8183311 L16.8617971,16.8183311 Z" id="还款" fill="#29B6F6"></path>
                <rect id="Rectangle-26" fill="#FFFFFF" opacity="0.01" x="0" y="0" width="20" height="20"></rect>
            </g>
        </g>
    </g>
</svg>