<?xml version="1.0" encoding="UTF-8" standalone="no"?>
<svg width="20px" height="20px" viewBox="0 0 20 20" version="1.1" xmlns="http://www.w3.org/2000/svg" xmlns:xlink="http://www.w3.org/1999/xlink">
    <!-- Generator: Sketch 43.1 (39012) - http://www.bohemiancoding.com/sketch -->
    <title>business_2</title>
    <desc>Created with Sketch.</desc>
    <defs></defs>
    <g id="Page-1" stroke="none" stroke-width="1" fill="none" fill-rule="evenodd">
        <g id="5查询-业务查询-业务详情" transform="translate(-15.000000, -146.000000)">
            <g id="business_2" transform="translate(15.000000, 146.000000)">
                <path d="M4.39999202,4.96431388 C4.96666733,4.96431388 5.43888346,4.39797478 5.43888346,3.64286927 L5.43888346,2.3214446 C5.5333227,1.5663391 4.96666733,1 4.39999202,1 C3.83333666,1 3.36112053,1.5663391 3.36112053,2.3214446 L3.36112053,3.83165562 C3.36112053,4.39797478 3.83333666,4.96431388 4.39999202,4.96431388 Z M16.8666693,2.51021101 L16.299994,2.51021101 L16.2055548,4.58676112 C16.2055548,4.58676112 16.2055548,5.53063304 15.2611026,5.53063304 L15.0722241,5.53063304 L13.749995,5.53063304 L13.4666574,5.53063304 C12.5222251,5.53063304 12.6166643,4.58676112 12.6166643,4.58676112 L12.6166643,2.51021101 L6.19443724,2.51021101 L6.19443724,4.58676112 C6.19443724,4.58676112 6.28889642,5.43624983 5.34444422,5.53063304 L5.06110657,5.53063304 L3.73889742,5.53063304 L3.549999,5.53063304 C2.6055468,5.53063304 2.6055468,4.58676112 2.6055468,4.58676112 L2.6055468,2.51021101 L2.13333067,2.51021101 C2.13333067,2.51021101 1,2.41582781 1,3.54848607 L1,3.64286927 L1,16.10215 C1,17.2348083 2.13333067,17.2348083 2.13333067,17.2348083 L16.8666693,17.2348083 C16.8666693,17.2348083 18,17.2348083 18,16.10215 L18,3.64286927 C18,3.64286927 18,3.64286927 18,3.54848607 C18,2.51021101 16.8666693,2.51021101 16.8666693,2.51021101 Z M2.88888446,14.8750886 L2.88888446,13.5536639 C2.88888446,12.8929416 4.02221513,12.2322193 5.06110657,11.8546666 C5.1555458,11.8546666 5.43888346,11.571497 5.34444422,11.0995611 C4.87222809,10.6276251 4.39999202,9.77811646 4.39999202,9.02301096 C4.39999202,7.79596949 5.25000499,7.13524719 6.19443724,7.13524719 C7.13888944,7.13524719 7.98888246,7.79596949 7.98888246,9.02301096 C7.98888246,9.87249967 7.61110557,10.6276251 7.04445021,11.0995611 C6.85555179,11.6658802 7.13888944,11.8546666 7.23332868,11.8546666 C8.27222012,12.1378361 9.40555079,12.7985584 9.40555079,13.5536639 L9.40555079,14.8750886 L2.88888446,14.8750886 Z M15.3555618,13.9312167 L11.5777729,13.9312167 C11.199996,13.9312167 10.7277799,13.6480471 10.7277799,13.081708 C10.7277799,12.7041553 11.0111175,12.2322193 11.5777729,12.2322193 L15.3555618,12.2322193 C15.7333387,12.2322193 16.2055548,12.5153889 16.2055548,13.081708 C16.2055548,13.6480471 15.8277779,13.9312167 15.3555618,13.9312167 Z M15.3555618,10.8163915 L11.5777729,10.8163915 C11.199996,10.8163915 10.7277799,10.533222 10.7277799,9.9669028 C10.7277799,9.58935005 11.0111175,9.11739416 11.5777729,9.11739416 L15.3555618,9.11739416 C15.7333387,9.11739416 16.2055548,9.40056371 16.2055548,9.9669028 C16.2055548,10.4388388 15.8277779,10.8163915 15.3555618,10.8163915 Z M14.599988,4.96431388 C15.1666633,4.96431388 15.6388795,4.39797478 15.6388795,3.64286927 L15.6388795,2.3214446 C15.6388795,1.5663391 15.1666633,1 14.599988,1 C14.0333327,1 13.6555558,1.5663391 13.6555558,2.3214446 L13.6555558,3.83165562 C13.4666574,4.39797478 14.0333327,4.96431388 14.599988,4.96431388 L14.599988,4.96431388 Z" id="客户资料" fill="#069E55"></path>
                <rect id="Rectangle-26" fill="#FFFFFF" opacity="0.01" x="0" y="0" width="20" height="20"></rect>
            </g>
        </g>
    </g>
</svg>