<?xml version="1.0" standalone="no"?><!DOCTYPE svg PUBLIC "-//W3C//DTD SVG 1.1//EN" "http://www.w3.org/Graphics/SVG/1.1/DTD/svg11.dtd"><svg t="1502352932709" class="icon" style="" viewBox="0 0 1024 1024" version="1.1" xmlns="http://www.w3.org/2000/svg" p-id="5417" xmlns:xlink="http://www.w3.org/1999/xlink" width="48" height="48"><defs><style type="text/css"></style></defs><path d="M925.781333 119.381333c-75.861333-75.818667-198.954667-75.818667-274.901333 0l-187.434667 187.221333-312.490667 312.021333-62.464 62.464c-58.666667 58.666667-58.666667 153.6 0 212.266667 58.666667 58.581333 153.770667 58.581333 212.437333 0l252.714667-252.330667 122.24-122.112 120.448-120.362667c40.448-40.490667 40.448-105.856 0-146.304-40.405333-40.362667-105.856-40.362667-146.389333 0l-364.202667 363.776 24.96 25.002667 364.245333-363.776c13.312-13.354667 30.677333-19.882667 48.256-19.882667 17.493333 0 34.730667 6.528 48.170667 19.882667 13.312 13.312 20.010667 30.677333 20.010667 48.085333 0 17.493333-6.570667 34.858667-20.010667 48.170667l-120.533333 120.405333-122.282667 122.112-252.672 252.330667c-22.442667 22.357333-51.754667 33.450667-81.237333 33.578667-29.482667-0.128-58.709333-11.221333-81.237333-33.578667-22.442667-22.4-33.621333-51.754667-33.621333-81.109333 0-29.44 11.136-58.709333 33.621333-81.194667l62.506667-62.378667 312.448-312.064 187.52-187.178667c31.104-31.104 71.765333-46.506667 112.426667-46.506667 40.832 0 81.450667 15.488 112.554667 46.506667 31.104 31.104 46.549333 71.637333 46.549333 112.256 0 40.832-15.402667 81.408-46.549333 112.384L469.632 799.701333l25.002667 25.002667L925.781333 393.984C1001.770667 318.165333 1001.770667 195.242667 925.781333 119.381333z" p-id="5418" fill="#1296db"></path></svg>