<?xml version="1.0" encoding="UTF-8" standalone="no"?>
<svg width="174px" height="20px" viewBox="0 0 174 20" version="1.1" xmlns="http://www.w3.org/2000/svg" xmlns:xlink="http://www.w3.org/1999/xlink">
    <!-- Generator: Sketch 43.1 (39012) - http://www.bohemiancoding.com/sketch -->
    <title>logo2</title>
    <desc>Created with Sketch.</desc>
    <defs></defs>
    <g id="Page-1" stroke="none" stroke-width="1" fill="none" fill-rule="evenodd">
        <g id="1主页-登录" transform="translate(-101.000000, -209.000000)" fill="#231815">
            <path d="M102.11922,212.347639 L103.324534,209.171674 L106.596101,209.171674 L105.218599,212.862661 L105.218599,229 L102.205314,229 L102.205314,215.866953 L101,215.866953 L101,213.291845 C101.516566,213.406295 101.889635,213.091563 102.11922,212.347639 Z M112.192202,210.459227 L112.192202,209.257511 L115.463769,209.257511 L115.463769,210.459227 L120.715494,210.459227 L120.715494,212.948498 L106.510007,212.948498 L106.510007,210.459227 L112.192202,210.459227 Z M106.768289,216.811159 L120.198931,216.811159 L120.198931,214.236052 L106.768289,214.236052 L106.768289,216.811159 Z M120.285025,220.416309 L120.285025,218.012876 L106.768289,218.012876 L106.768289,220.416309 L120.285025,220.416309 Z M120.371119,221.7897 L120.371119,226.939914 C120.371119,228.141637 119.768468,228.742489 118.563148,228.742489 L106.682195,228.742489 L106.682195,221.7897 L120.371119,221.7897 Z M117.357834,224.193133 L109.867668,224.193133 L109.867668,226.167382 L117.099552,226.167382 C117.271741,226.167382 117.357834,226.081546 117.357834,225.909871 L117.357834,224.193133 Z M129.152693,210.545064 L132.165978,210.545064 L131.563321,209.085837 L135.007076,209.085837 L135.523639,210.545064 L139.311769,210.545064 C139.541353,210.545064 139.627446,210.459228 139.57005,210.287554 L139.57005,209 L142.583335,209 L142.583335,211.403433 C142.583335,212.490706 142.066777,213.034335 141.033646,213.034335 L136.384577,213.034335 L136.815047,214.150215 C136.872443,214.550789 137.245512,214.722461 137.934267,214.665236 L141.980678,214.665236 L141.980678,216.982833 L136.556765,216.982833 C135.638426,216.982833 135.035775,216.925609 134.748794,216.811159 C134.461813,216.696709 134.232232,216.439201 134.060043,216.038627 L133.026917,213.034335 L129.152693,213.034335 L129.152693,210.545064 Z M123.040029,211.403433 L123.814873,211.403433 C124.216647,211.403433 124.474926,211.288985 124.589718,211.060086 L125.708938,209.085837 L129.410974,209.085837 L127.51691,212.776824 L127.51691,216.982833 L124.073155,216.982833 L124.073155,214.064378 L123.040029,214.064378 L123.040029,211.403433 Z M126.397689,220.244635 L126.397689,224.708155 L123.126123,224.708155 L123.126123,217.497854 L142.325054,217.497854 L142.325054,224.450644 L139.053487,224.450644 L139.053487,220.244635 L126.397689,220.244635 Z M128.033473,225.738197 L130.87457,223.849785 L130.87457,220.845494 L134.576606,220.845494 L134.576606,223.763948 L137.848173,225.909871 C138.077758,226.081546 138.565618,226.167382 139.311769,226.167382 L142.23896,226.167382 L142.23896,228.656652 L138.192548,228.656652 C137.216813,228.713877 136.470674,228.542205 135.954108,228.141631 L132.768635,226.253219 L129.927538,228.055794 C129.468368,228.399143 128.837019,228.570815 128.033473,228.570815 L122.867841,228.570815 L122.867841,226.081545 L126.483783,226.081545 C127.000349,226.081545 127.316023,226.052933 127.430816,225.995708 C127.6604,225.995708 127.861284,225.909872 128.033473,225.738197 Z M156.444447,213.549356 L156.444447,212.347639 L161.782267,212.347639 L161.782267,213.463519 L164.623364,213.463519 L164.623364,209.944206 L160.74914,209.944206 L160.74914,209.085837 L157.219292,209.085837 L157.219292,209.944206 L153.60335,209.944206 L153.60335,213.549356 L156.444447,213.549356 Z M145.166151,214.751073 L145.166151,217.755365 L148.007249,217.755365 L145.252245,222.304721 L145.252245,224.536481 L152.656317,224.536481 L152.656317,221.961373 L148.609906,221.961373 L153.431162,213.549356 L150.331783,213.549356 L149.38475,215.180258 L148.007249,215.180258 L151.278815,209.257511 L148.179436,209.257511 L145.166151,214.751073 Z M164.53727,217.154506 L164.53727,214.83691 L153.60335,214.83691 L153.60335,217.154506 L164.53727,217.154506 Z M158.080231,221.017167 L153.689444,221.017167 L153.689444,218.613734 L164.623364,218.613734 L164.623364,221.017167 L160.835234,221.017167 L160.835234,226.76824 C160.89263,228.084413 160.433468,228.685265 159.457732,228.570815 L157.133198,228.570815 L157.133198,226.682403 L157.735855,226.682403 C157.96544,226.739628 158.080231,226.62518 158.080231,226.339056 L158.080231,221.017167 Z M153.517256,226.167382 L154.206007,226.167382 C154.378195,226.167382 154.492986,226.052934 154.550382,225.824034 L154.980852,222.04721 L157.477574,222.04721 L156.874916,226.682403 C156.760124,227.769676 156.214868,228.284693 155.239133,228.227468 L153.517256,228.227468 L153.517256,226.167382 Z M161.954454,226.854077 L161.265703,222.04721 L163.676332,222.04721 L164.192895,225.738197 C164.250291,225.967097 164.365082,226.081545 164.53727,226.081545 L164.709458,226.081545 L164.709458,228.055794 L163.073675,228.055794 C162.327524,228.170244 161.954454,227.769676 161.954454,226.854077 Z M145.338339,226.253219 L145.338339,228.828326 L152.570223,228.828326 L152.570223,226.253219 L145.338339,226.253219 Z M167.292274,212.60515 L167.292274,215.094421 L169.530714,215.094421 C170.276865,215.151645 170.879516,214.808301 171.338685,214.064378 L172.974469,211.48927 L181.325573,211.48927 L182.616981,214.064378 C182.961358,214.808301 183.6788,215.151645 184.769328,215.094421 L186.663393,215.094421 L186.663393,212.60515 L185.974642,212.60515 C185.515472,212.60515 185.1711,212.376254 184.941516,211.918455 L183.47792,209 L171.080404,209 L169.014151,212.090129 C168.72717,212.490703 168.440193,212.662375 168.153212,212.60515 L167.292274,212.60515 Z M186.663393,218.785408 L186.663393,216.296137 L167.20618,216.296137 L167.20618,218.785408 L186.663393,218.785408 Z M183.650108,228.484979 L167.550555,228.484979 L167.550555,220.072961 L186.232923,220.072961 L186.232923,225.995708 C186.29032,227.712455 185.42939,228.542203 183.650108,228.484979 Z M183.047451,222.476395 L170.649934,222.476395 L170.649934,225.995708 L182.3587,225.995708 C182.875265,225.995708 183.104847,225.766812 183.047451,225.309013 L183.047451,222.476395 Z M195.358873,209.085837 L198.372158,209.085837 L198.372158,225.909871 L200.094035,225.909871 L200.094035,209.085837 L203.10732,209.085837 L203.10732,225.909871 L208.961703,225.909871 L208.961703,228.570815 L189.848866,228.570815 L189.848866,225.909871 L195.358873,225.909871 L195.358873,209.085837 Z M205.517949,220.072961 L206.206699,210.030043 L208.961703,210.030043 L208.186858,221.017167 C208.072066,222.619464 207.41202,223.391989 206.206699,223.334764 L204.140447,223.334764 L204.140447,220.759657 L204.915292,220.759657 C205.202272,220.759657 205.403156,220.530761 205.517949,220.072961 Z M190.451523,220.93133 L189.848866,210.11588 L192.603869,210.11588 L193.120432,219.987124 C193.120432,220.616598 193.292618,220.902718 193.636996,220.845494 L194.239653,220.845494 L194.239653,223.420601 L192.087306,223.420601 C191.054175,223.477826 190.508919,222.648077 190.451523,220.93133 Z M211.544519,210.888412 L211.544519,213.291845 L215.160461,213.291845 C215.906612,213.291845 216.451867,213.005725 216.796244,212.433476 L224.28641,212.433476 L220.326093,214.407725 L219.120779,213.72103 L213.782959,213.72103 L217.657183,215.95279 L216.882338,216.381974 C216.595357,216.496424 216.308381,216.553648 216.0214,216.553648 L211.458425,216.553648 L211.458425,218.871245 L216.537963,218.871245 L216.193587,220.158798 L211.458425,220.158798 L211.458425,222.819742 L215.59093,222.819742 L214.988273,225.39485 C214.873481,225.909874 214.615202,226.13877 214.213429,226.081545 L211.458425,226.081545 L211.458425,228.484979 L216.107494,228.484979 C216.91104,228.542203 217.427598,228.084411 217.657183,227.111588 L218.776403,222.819742 L227.730165,222.819742 L227.730165,225.39485 C227.787561,225.967099 227.55798,226.224607 227.041414,226.167382 L224.372504,226.167382 L224.372504,228.484979 L229.538136,228.484979 C230.399079,228.542203 230.800846,228.027187 230.74345,226.939914 L230.74345,220.158798 L219.37906,220.158798 L219.80953,218.785408 L217.915465,218.785408 C218.546823,218.728183 219.092079,218.556511 219.551248,218.270386 L220.584374,217.583691 L222.04797,218.356223 C222.449743,218.585123 222.822813,218.756795 223.16719,218.871245 C223.396775,218.92847 223.82724,218.957082 224.458598,218.957082 L230.915638,218.957082 L230.915638,216.553648 L225.750006,216.553648 C225.003856,216.610873 224.4586,216.525037 224.114223,216.296137 L223.511566,215.95279 L230.829544,211.832618 L230.829544,209.772532 L217.743277,209.772532 L218.173746,209 L214.90218,209 L214.213429,210.373391 C214.04124,210.773965 213.754263,210.945637 213.35249,210.888412 L211.544519,210.888412 Z M250.372851,209.343348 L250.372851,209 L253.127854,209 L253.127854,210.287554 C253.127854,211.260377 253.013064,211.832617 252.783479,212.004292 C252.61129,212.233191 252.008639,212.347639 250.975508,212.347639 L245.379407,212.347639 L240.385963,214.407725 L244.432374,214.407725 L245.809876,213.892704 L252.094728,213.892704 L240.472057,218.785408 L249.6841,218.785408 C250.085873,218.785408 250.286757,218.585124 250.286757,218.184549 L250.286757,216.381974 L253.213948,216.381974 L253.213948,219.128755 C253.213948,220.101579 253.07046,220.702431 252.783479,220.93133 C252.553894,221.16023 251.893848,221.274678 250.80332,221.274678 L245.121125,221.274678 L245.121125,228.656652 L241.935652,228.656652 L241.935652,221.360515 L233.584548,221.360515 L233.584548,218.785408 L238.836273,216.811159 L233.584548,216.811159 L233.584548,214.150215 L239.266742,212.347639 L233.584548,212.347639 L233.584548,209.858369 L249.770194,209.858369 C250.229363,209.915594 250.430247,209.743922 250.372851,209.343348 Z M235.564706,225.738197 L237.20049,222.218884 L240.644244,222.218884 L238.233616,227.798283 C238.118824,228.370532 237.630963,228.62804 236.77002,228.570815 L233.584548,228.570815 L233.584548,226.081545 L235.134237,226.081545 C235.306426,226.081545 235.449914,225.967097 235.564706,225.738197 Z M248.650973,227.540773 L246.412533,222.218884 L249.770194,222.218884 L251.319883,225.738197 C251.492072,226.081547 251.721653,226.224607 252.008634,226.167382 L253.213948,226.167382 L253.213948,228.570815 L250.286757,228.570815 C249.368418,228.685265 248.823162,228.341921 248.650973,227.540773 Z M267.247248,209.944206 L267.247248,209 L270.518814,209 L270.518814,209.944206 L274.909601,209.944206 L274.909601,212.347639 L268.108186,212.347639 L266.472403,216.038627 L271.810222,216.038627 C272.1546,216.038627 272.298088,215.895567 272.240692,215.609442 L272.240692,213.549356 L274.995695,213.549356 L274.995695,216.982833 C275.053091,218.12733 274.536533,218.670959 273.446006,218.613734 L272.240692,218.613734 L272.240692,225.566524 C272.240692,226.024323 272.441575,226.253219 272.843349,226.253219 L274.909601,226.253219 L274.909601,228.570815 L271.207565,228.570815 C270.002245,228.62804 269.428292,227.998576 269.485688,226.682403 L269.485688,218.613734 L263.028648,218.613734 L263.028648,216.725322 L265.008807,212.347639 L263.028648,212.347639 L263.028648,209.944206 L267.247248,209.944206 Z M255.280201,214.665236 L258.465674,209.085837 L261.392865,209.085837 L257.949111,215.266094 L258.896143,215.266094 L260.101457,213.120172 L263.114742,213.120172 L258.637861,221.188841 L262.512085,221.188841 L262.512085,223.678112 L255.280201,223.678112 L255.280201,221.7897 L257.690829,217.669528 L255.280201,217.669528 L255.280201,214.665236 Z M264.578338,225.309013 L265.52537,219.386266 L268.19428,219.386266 L267.161154,226.682403 C267.046361,227.483552 266.874175,227.969956 266.644591,228.141631 C266.415006,228.37053 265.984541,228.484979 265.353183,228.484979 L263.114742,228.484979 L263.114742,226.167382 L263.717399,226.167382 C264.291361,226.224607 264.578338,225.938487 264.578338,225.309013 Z M262.425991,228.484979 L262.425991,226.081545 L255.280201,226.081545 L255.280201,228.484979 L262.425991,228.484979 Z" id="logo2"></path>
        </g>
    </g>
</svg>