<?xml version="1.0" encoding="UTF-8" standalone="no"?>
<svg width="24px" height="22px" viewBox="0 0 24 22" version="1.1" xmlns="http://www.w3.org/2000/svg" xmlns:xlink="http://www.w3.org/1999/xlink">
    <!-- Generator: Sketch 43.1 (39012) - http://www.bohemiancoding.com/sketch -->
    <title>operation_2</title>
    <desc>Created with Sketch.</desc>
    <defs></defs>
    <g id="Page-1" stroke="none" stroke-width="1" fill="none" fill-rule="evenodd">
        <g id="operation_2" fill-rule="nonzero">
            <path d="M18.0966924,15.2899147 C18.0966924,16.9458983 17.9756918,18.2302264 17.3799967,19.1146722 C16.9681293,19.7286092 16.1118175,20.5448398 13.4521316,20.5448398 C11.4649298,20.5448398 10.6016372,20.1614231 9.85236433,19.5451338 C9.82444112,19.5239635 9.79651791,19.5027933 9.76626776,19.4839753 C9.69180587,19.4392826 9.63130558,19.3898853 9.57778609,19.3381358 L4.69355107,14.4289915 C4.16533699,13.8926786 4.55393501,13.1540723 4.82385939,12.8812114 C4.97278318,12.7306675 5.23805369,12.631873 5.51495886,12.6248162 C5.80815258,12.6177595 6.07342309,12.7118495 6.24561622,12.8835637 L7.30902518,13.9538371 C7.52310313,14.1678918 7.84189313,14.2314025 8.12112524,14.1161423 C8.39803042,13.9985298 8.57953129,13.7256689 8.57953129,13.4198765 L8.57953129,6.60305792 C8.57953129,6.02910909 9.05887975,5.50690973 9.58476689,5.50690973 C10.1525388,5.50690973 10.5318291,6.07380182 10.5318291,6.60305792 L10.5318291,7.42869744 C10.5248483,7.47339018 10.5201945,7.51808292 10.5201945,7.5651279 L10.5201945,11.5451338 C10.5201945,11.9614819 10.8529461,12.2978536 11.2648134,12.2978536 C11.6766808,12.2978536 12.0094324,11.9614819 12.0094324,11.5451338 L12.0094324,8.94825051 C12.0466633,8.93413702 12.0792404,8.92708027 12.1025098,8.92708027 C12.484127,8.92708027 12.7982631,9.14113496 12.9588216,9.50573361 L12.9588216,12.2907968 C12.9588216,12.707145 13.2915732,13.0435166 13.7034405,13.0435166 C14.1153079,13.0435166 14.4480595,12.707145 14.4480595,12.2907968 L14.4480595,9.86798001 C14.5108867,9.85621876 14.571387,9.84916201 14.6342142,9.84916201 C15.0158315,9.84916201 15.3299676,10.0632167 15.4905261,10.4278154 L15.4905261,13.0670391 C15.4905261,13.4833872 15.8232777,13.8197589 16.235145,13.8197589 C16.6470124,13.8197589 16.979764,13.4833872 16.979764,13.0670391 L16.979764,10.7853573 C17.0263027,10.7783005 17.0728414,10.773596 17.121707,10.773596 L17.1682457,10.773596 C17.4963434,10.773596 17.7080944,10.9264922 17.8267681,11.0535137 C18.0012881,11.2393414 18.0966924,11.4957365 18.0966924,11.7780065 L18.0966924,15.2899147 L18.0966924,15.2899147 Z" id="Fill-1" stroke="#29B6F6" stroke-width="1.3" fill="#29B6F6"></path>
            <path d="M5.89890302,6.20552779 C6.31077038,6.20552779 6.64352198,5.86915613 6.64352198,5.452808 C6.64352198,3.83446045 7.94660517,2.51720082 9.54753594,2.51720082 C11.1484667,2.51720082 12.4515499,3.83446045 12.4515499,5.452808 C12.4515499,5.86915613 12.7843015,6.20552779 13.1961689,6.20552779 C13.6080362,6.20552779 13.9407878,5.86915613 13.9407878,5.452808 C13.9407878,3.00411644 11.9698745,1.01176125 9.54753594,1.01176125 C7.12519737,1.01176125 5.15428405,3.00411644 5.15428405,5.452808 C5.15428405,5.86915613 5.48703565,6.20552779 5.89890302,6.20552779" id="Fill-2" fill="#29B6F6"></path>
            <rect id="Rectangle-11" fill="#FFFFFF" opacity="0.01" x="0" y="0" width="24" height="22"></rect>
        </g>
    </g>
</svg>