<?xml version="1.0" encoding="UTF-8" standalone="no"?>
<svg width="22px" height="22px" viewBox="0 0 22 22" version="1.1" xmlns="http://www.w3.org/2000/svg" xmlns:xlink="http://www.w3.org/1999/xlink">
    <!-- Generator: Sketch 43.1 (39012) - http://www.bohemiancoding.com/sketch -->
    <title>operation_other</title>
    <desc>Created with Sketch.</desc>
    <defs></defs>
    <g id="Page-1" stroke="none" stroke-width="1" fill="none" fill-rule="evenodd">
        <g id="2操作-上传附件" transform="translate(-15.000000, -928.000000)">
            <g id="operation_other" transform="translate(15.000000, 928.000000)">
                <circle id="Oval-8" fill="#29B6F6" cx="11" cy="11" r="11"></circle>
                <g id="照片-(1)" transform="translate(4.000000, 5.000000)">
                    <path d="M11.2441841,0.00877637131 L4.89104603,0.00877637131 C3.93082287,0.00877637131 3.15046025,0.795724332 3.15046025,1.76405063 L3.15046025,1.77428973 L1.14878661,1.77428973 C0.52362622,1.77428973 0.0116039052,2.29063291 0.0116039052,2.92106892 L0.0116039052,11.8422504 C0.0116039052,12.4726864 0.52362622,12.9890295 1.14878661,12.9890295 L10.1142538,12.9890295 C10.7394142,12.9890295 11.2514365,12.4726864 11.2514365,11.8422504 L11.2514365,11.8407876 C12.2087587,11.8378622 12.9862204,11.0509142 12.9862204,10.0855134 L12.9862204,1.76405063 C12.9847699,0.795724332 12.2044073,0.00877637131 11.2441841,0.00877637131 Z" id="Fill-1" stroke="#29B6F6" stroke-width="0.3" fill="#29B6F6"></path>
                    <path d="M10.7959833,11.8422504 C10.7959833,12.0250914 10.7249093,12.1976934 10.5943654,12.3278762 C10.465272,12.4580591 10.2941144,12.5311955 10.1128033,12.5311955 L1.14878661,12.5311955 C0.967475593,12.5311955 0.796317992,12.4595218 0.667224547,12.3278762 C0.538131102,12.1976934 0.465606695,12.0250914 0.465606695,11.8422504 L0.465606695,11.4195218 C0.487364017,11.42391 0.507670851,11.4268354 0.529428173,11.4268354 C0.610655509,11.4268354 0.691882845,11.39173 0.749902371,11.3259072 L3.74951185,7.81389592 L5.36245467,9.47409283 C5.42192469,9.53552743 5.50460251,9.56624473 5.58873082,9.56185654 C5.67285914,9.55600563 5.7511855,9.5135865 5.80195258,9.44630098 L8.38962343,5.98841069 L10.5958159,8.52331927 C10.6480335,8.58475387 10.7205579,8.6169339 10.7945328,8.62278481 L10.7945328,11.8422504 L10.7959833,11.8422504 Z" id="Path" fill="#FFFFFF"></path>
                    <path d="M10.7959833,7.86509142 L8.58979079,5.33164557 C8.53177127,5.26582278 8.44909344,5.22925457 8.36061367,5.23218003 C8.27358438,5.23510549 8.19235704,5.27752461 8.14013947,5.34773558 L5.54086471,8.82171589 L3.94242678,7.177609 C3.88585774,7.11909986 3.80753138,7.08691983 3.72630404,7.08984529 C3.64507671,7.09277075 3.56820084,7.12933896 3.51598326,7.19077356 L0.465606695,10.761294 L0.465606695,2.92106892 C0.465606695,2.73822785 0.536680614,2.56562588 0.667224547,2.43544304 C0.796317992,2.3052602 0.967475593,2.23212377 1.14878661,2.23212377 L10.1142538,2.23212377 C10.2955649,2.23212377 10.4667225,2.30379747 10.5958159,2.43544304 C10.7249093,2.56562588 10.7974338,2.73822785 10.7974338,2.92106892 L10.7974338,7.86509142 L10.7959833,7.86509142 Z" id="Path" fill="#FFFFFF"></path>
                    <path d="M12.4045746,10.0855134 C12.4045746,10.7291139 11.8867503,11.2527707 11.2499861,11.2556962 L11.2499861,2.92106892 C11.2499861,2.29063291 10.7379637,1.77428973 10.1128033,1.77428973 L3.732106,1.77428973 L3.732106,1.76405063 C3.732106,1.11898734 4.25283124,0.593867792 4.89249651,0.593867792 L11.2456346,0.593867792 C11.8852999,0.593867792 12.4060251,1.11898734 12.4060251,1.76405063 L12.4060251,10.0855134 L12.4045746,10.0855134 L12.4045746,10.0855134 Z" id="Path" fill="#FFFFFF"></path>
                    <path d="M5.56987448,3.36866385 C4.90555091,3.36866385 4.36596932,3.9142616 4.36596932,4.58272855 C4.36596932,5.25265823 4.90700139,5.79679325 5.56987448,5.79679325 C6.23419805,5.79679325 6.77377964,5.2511955 6.77377964,4.58272855 C6.77377964,3.91279887 6.23274756,3.36866385 5.56987448,3.36866385 Z M5.56987448,5.21170183 C5.22610879,5.21170183 4.94616457,4.92939522 4.94616457,4.58272855 C4.94616457,4.23606188 5.22610879,3.95375527 5.56987448,3.95375527 C5.91364017,3.95375527 6.19358438,4.23606188 6.19358438,4.58272855 C6.19358438,4.92939522 5.91364017,5.21170183 5.56987448,5.21170183 L5.56987448,5.21170183 Z" id="Fill-2" stroke="#29B6F6" stroke-width="0.3" fill="#29B6F6"></path>
                </g>
            </g>
        </g>
    </g>
</svg>