<?xml version="1.0" encoding="UTF-8" standalone="no"?>
<svg width="22px" height="22px" viewBox="0 0 22 22" version="1.1" xmlns="http://www.w3.org/2000/svg" xmlns:xlink="http://www.w3.org/1999/xlink">
    <!-- Generator: Sketch 43.1 (39012) - http://www.bohemiancoding.com/sketch -->
    <title> operation_notarial </title>
    <desc>Created with Sketch.</desc>
    <defs></defs>
    <g id="Page-1" stroke="none" stroke-width="1" fill="none" fill-rule="evenodd">
        <g id="2操作-上传附件" transform="translate(-15.000000, -448.000000)">
            <g id="-operation_notarial-" transform="translate(15.000000, 448.000000)">
                <circle id="Oval-8" fill="#29B6F6" cx="11" cy="11" r="11"></circle>
                <g id="Group-3" transform="translate(6.000000, 5.000000)">
                    <path d="M6.68878246,11.0769231 L1.8277392,11.0769231 C0.818306714,11.0769231 0,10.2443535 0,9.2228952 L0,1.85402788 L0,1.85402788 C0,0.830076555 0.825161487,0 1.8260156,0 L8.25731774,0 C9.2657983,0 10.0833333,0.823335111 10.0833333,1.84824104 L10.0833333,6.10490841" id="Rectangle-3" stroke="#FAFAFA" stroke-width="0.7" fill="#FFFFFF" stroke-linecap="round" stroke-linejoin="round"></path>
                    <path d="M8.1590678,5.66814213 C6.5900604,5.66814213 5.31813561,6.93625573 5.31813561,8.50065628 C5.31813561,10.0650721 6.5900604,11.3332624 8.1590678,11.3332624 C9.72807521,11.3332624 11,10.0650721 11,8.50065628 C11,6.93625573 9.72801374,5.66814213 8.1590678,5.66814213 Z" id="房屋产权公证书" stroke="#29B6F6" stroke-width="0.7" fill="#FFFFFF"></path>
                    <polygon id="Path" fill="#29B6F6" points="8.25046829 8.93802428 7.1499993 10.0321493 7.1499993 7.10770358 9.3500215 7.10770358 9.3500215 10.0312501"></polygon>
                    <rect id="Rectangle-4" fill="#29B6F6" x="1.83333333" y="1.84615385" width="6.41666667" height="1" rx="0.5"></rect>
                    <rect id="Rectangle-4" fill="#29B6F6" x="1.83333333" y="3.69230769" width="6.41666667" height="1" rx="0.5"></rect>
                    <rect id="Rectangle-4" fill="#29B6F6" x="1.83333333" y="5.53846154" width="2.75" height="1" rx="0.5"></rect>
                    <rect id="Rectangle-4" fill="#29B6F6" x="1.83333333" y="7.38461538" width="1.83333333" height="1" rx="0.5"></rect>
                    <rect id="Rectangle-4" fill="#29B6F6" x="1.83333333" y="9.23076923" width="1.83333333" height="1" rx="0.5"></rect>
                </g>
            </g>
        </g>
    </g>
</svg>