<?xml version="1.0" encoding="UTF-8" standalone="no"?>
<svg width="22px" height="22px" viewBox="0 0 22 22" version="1.1" xmlns="http://www.w3.org/2000/svg" xmlns:xlink="http://www.w3.org/1999/xlink">
    <!-- Generator: Sketch 43.1 (39012) - http://www.bohemiancoding.com/sketch -->
    <title> operation_id</title>
    <desc>Created with Sketch.</desc>
    <defs></defs>
    <g id="Page-1" stroke="none" stroke-width="1" fill="none" fill-rule="evenodd">
        <g id="2操作-上传附件" transform="translate(-15.000000, -131.000000)">
            <g id="-operation_id" transform="translate(15.000000, 131.000000)">
                <circle id="Oval-8" fill="#29B6F6" cx="11" cy="11" r="11"></circle>
                <g id="身份证" transform="translate(4.500000, 6.000000)">
                    <path d="M11.5490073,0.0116319328 L1.45701094,0.0116319328 C0.661120292,0.0124033613 0.0161433779,0.630045378 0.0153219927,1.39211092 L0.0153219927,7.60478824 C0.0161433779,8.36692941 0.661120292,8.9845563 1.45696355,8.98532773 L11.5490231,8.98532773 C12.3449295,8.9845563 12.9899222,8.36691429 12.990712,7.60484874 L12.990712,1.39217143 C12.9899064,0.630030252 12.3449137,0.0124033613 11.5490863,0.0116319328 L11.5490073,0.0116319328 Z" id="Fill-1" fill="#FFFFFF"></path>
                    <path d="M10.1869769,4.77184538 C10.5762345,4.45501513 10.8280996,3.98907227 10.8280996,3.46310924 C10.8280996,2.51158992 10.0196039,1.73737815 9.02593317,1.73737815 C8.03226245,1.73737815 7.22392467,2.51158992 7.22392467,3.46310924 C7.22392467,3.98907227 7.47616889,4.45501513 7.86544228,4.77184538 C7.0574678,5.17504538 6.5030486,5.98341176 6.5030486,6.9145563 C6.5030486,7.10517479 6.66443499,7.25971765 6.86349453,7.25971765 C7.06255407,7.25971765 7.22394046,7.10515966 7.22394046,6.9145563 C7.22394046,5.96302185 8.03243621,5.18882521 9.02609113,5.18882521 C10.0197303,5.18882521 10.8282418,5.96302185 10.8282418,6.9145563 C10.8282418,7.10517479 10.989644,7.25971765 11.1886877,7.25971765 C11.3877631,7.25971765 11.5491495,7.10515966 11.5491495,6.9145563 C11.5490231,5.98341176 10.9949672,5.17503025 10.1869769,4.77184538 Z M7.94472175,3.46310924 C7.94472175,2.89125378 8.42880194,2.42771597 9.02596476,2.42771597 C9.62312758,2.42771597 10.107192,2.89128403 10.107192,3.46310924 C10.107192,4.03494958 9.62311179,4.49848739 9.02596476,4.49848739 C8.42908627,4.4978521 7.94540097,4.03466218 7.94472175,3.46315462 L7.94472175,3.46310924 Z M6.14253949,2.42757983 L1.81744107,2.42757983 C1.61838153,2.42757983 1.45699514,2.58213782 1.45699514,2.7727563 C1.45699514,2.96335966 1.61839733,3.11791765 1.81744107,3.11791765 L6.14253949,3.11791765 C6.34159903,3.11791765 6.50298542,2.96335966 6.50298542,2.7727563 C6.50298542,2.58213782 6.34158323,2.42757983 6.14253949,2.42757983 Z M5.78207776,4.15332605 L1.81744107,4.15332605 C1.61838153,4.15332605 1.45699514,4.30786891 1.45699514,4.49848739 C1.45699514,4.68910588 1.61839733,4.84364874 1.81744107,4.84364874 L5.78207776,4.84364874 C5.9811531,4.84364874 6.14253949,4.68910588 6.14253949,4.49848739 C6.14253949,4.30786891 5.9811373,4.15332605 5.78207776,4.15332605 Z M4.70085055,5.87904202 L1.81745687,5.87904202 C1.61839733,5.87904202 1.45701094,6.03358487 1.45701094,6.22420336 C1.45701094,6.41480672 1.61841312,6.56936471 1.81745687,6.56936471 L4.70085055,6.56936471 C4.89991009,6.56936471 5.06129648,6.41480672 5.06129648,6.22420336 C5.06129648,6.03358487 4.89991009,5.87904202 4.70085055,5.87904202 L4.70085055,5.87904202 Z" id="Fill-2" fill="#29B6F6"></path>
                </g>
            </g>
        </g>
    </g>
</svg>