<?xml version="1.0" encoding="UTF-8" standalone="no"?>
<svg width="15px" height="14px" viewBox="0 0 15 14" version="1.1" xmlns="http://www.w3.org/2000/svg" xmlns:xlink="http://www.w3.org/1999/xlink">
    <!-- Generator: Sketch 43.1 (39012) - http://www.bohemiancoding.com/sketch -->
    <title> operation_enclosure</title>
    <desc>Created with Sketch.</desc>
    <defs></defs>
    <g id="Page-1" stroke="none" stroke-width="1" fill="none" fill-rule="evenodd">
        <g id="2操作-上传附件" transform="translate(-15.000000, -78.000000)" fill="#3D3D3D">
            <path d="M29.9674847,88.2798441 C29.8640417,87.5201988 29.5496105,86.9878661 29.5139405,86.9295855 C29.48886,86.8885076 29.4593654,86.8503801 29.4260139,86.8159292 L21.814925,78.9489524 C21.7910038,78.9242149 21.7651876,78.9014292 21.7376994,78.8808676 C21.7073799,78.8581726 20.9850621,78.3240243 19.9661482,78.1001614 C18.9916435,77.8851948 17.5553904,77.9117025 16.250403,79.2568775 C14.9202682,80.6287417 14.8874518,82.089207 15.0943379,83.073623 C15.3121033,84.109602 15.8416247,84.8311198 15.8640968,84.8612587 C15.8811069,84.8841352 15.8995884,84.9058543 15.9193853,84.926257 L22.014142,91.2116683 C22.2636091,91.4664191 22.6684192,91.4680758 22.9199151,91.2153676 C23.1713887,90.9626593 23.1750003,90.5505871 22.9280077,90.2933399 L16.8703478,84.0455115 C16.7870584,83.9213247 16.4726272,83.4209465 16.3422533,82.7584356 C16.154094,81.801435 16.4314283,80.9323093 17.1649821,80.1752058 C17.8733886,79.4446101 18.7116339,79.1742679 19.6568892,79.3692628 C20.3066185,79.5037985 20.8079605,79.8189859 20.9436849,79.910492 L28.4495473,87.670167 C28.5795422,87.9303192 28.6643254,88.2113962 28.7001292,88.5009837 C28.7737877,89.1270011 28.5752841,89.6871125 28.111574,90.1653404 C27.7013688,90.589282 27.2376586,90.7550459 26.6960095,90.6722548 C26.4393415,90.6307003 26.1918362,90.5435517 25.9647742,90.4148033 L19.6501119,83.8828341 C19.6144419,83.8388967 19.4680165,83.6453542 19.3957847,83.4013381 C19.30982,83.1108428 19.3645735,82.8929713 19.5789502,82.6716501 C19.7763838,82.4679403 19.9768492,82.412383 20.2493681,82.4859147 C20.4093481,82.5323712 20.5601877,82.6067199 20.6952433,82.7056018 L25.5342372,87.6770663 C25.7838381,87.9335192 26.1903871,87.9354256 26.4423065,87.681333 C26.694226,87.4272403 26.6960987,87.0133752 26.4464978,86.7569223 L21.577541,81.7536849 C21.562359,81.7381161 21.5463967,81.723319 21.5297432,81.7093843 C21.2638233,81.4975951 20.9613862,81.3382311 20.6379929,81.2395081 C19.9005154,81.0192763 19.199778,81.2017437 18.6649062,81.7535033 C18.1063138,82.3295919 17.9358111,83.0699919 18.1846094,83.838352 C18.2965241,84.175667 18.4703485,84.4882899 18.6968308,84.7595853 C18.7037196,84.7674605 18.7107421,84.775086 18.7178761,84.7824618 L25.1070888,91.3899598 C25.1374529,91.4213923 25.1708489,91.4496248 25.2067865,91.4742034 C25.2602915,91.5105154 25.7480789,91.833873 26.4427524,91.9546101 C26.6135895,91.9845447 26.7866113,91.9997277 26.9599676,92 C27.578664,92 28.3300528,91.8002845 29.0257964,91.0836688 C29.9851414,90.0950768 30.0673607,89.0133448 29.9674847,88.2798441" id="-operation_enclosure" transform="translate(22.500000, 85.000000) scale(-1, 1) translate(-22.500000, -85.000000) "></path>
        </g>
    </g>
</svg>