<?xml version="1.0" encoding="UTF-8" standalone="no"?>
<svg width="24px" height="22px" viewBox="0 0 24 22" version="1.1" xmlns="http://www.w3.org/2000/svg" xmlns:xlink="http://www.w3.org/1999/xlink">
    <!-- Generator: Sketch 43.1 (39012) - http://www.bohemiancoding.com/sketch -->
    <title>operation_1</title>
    <desc>Created with Sketch.</desc>
    <defs></defs>
    <g id="Page-1" stroke="none" stroke-width="1" fill="none" fill-rule="evenodd">
        <g id="Group-7">
            <g id="操作" transform="translate(3.277778, 1.071429)" stroke="#3D3D3D" stroke-width="1.2">
                <path d="M15.0714834,13.8359936 L15.0714834,10.1898803 C15.0714834,9.75030751 14.9206579,9.33811759 14.6371313,9.03082949 C14.3680348,8.73765776 13.9915703,8.54708699 13.5244677,8.54708699 L13.4769983,8.54708699 C13.3974807,8.54708699 13.3215659,8.55383733 13.2406963,8.56631871 L12.7322164,8.64479728 L12.7322164,9.15929769 L12.7322164,11.5281724 C12.7322164,11.6328292 12.657549,11.7096568 12.5727051,11.7096568 C12.4878611,11.7096568 12.4131937,11.6328292 12.4131937,11.5281724 L12.4131937,8.78809258 L12.4131937,8.66386332 L12.3638654,8.54984745 C12.1066863,7.95541264 11.5727351,7.58732642 10.9397557,7.58732642 C10.8387005,7.58732642 10.7410217,7.59775616 10.6375727,7.61746759 L10.1498778,7.7103943 L10.1498778,8.20686353 L10.1498778,10.7222666 C10.1498778,10.8269234 10.0752104,10.903751 9.99036649,10.903751 C9.90552256,10.903751 9.83085515,10.8269234 9.83085515,10.7222666 L9.83085515,7.83077414 L9.83085515,7.70654489 L9.78152679,7.59252901 C9.52434776,6.9980942 8.99039655,6.63000798 8.3574171,6.63000798 C8.24947181,6.63000798 8.1469448,6.65345091 8.04648932,6.69221155 L7.66247818,6.84038185 L7.66247818,7.25198723 L7.66247818,9.94810854 C7.66247818,10.0527654 7.58781077,10.129593 7.50296684,10.129593 C7.41812291,10.129593 7.3434555,10.0527654 7.3434555,9.94810854 L7.3434555,5.81600958 C7.3434555,5.80403007 7.34482199,5.78856375 7.34838068,5.76537332 L7.35532286,4.81717478 C7.35532286,3.9165727 6.69914694,3.07913807 5.78931937,3.07913807 C4.90667195,3.07913807 4.16397906,3.90320616 4.16397906,4.81717478 L4.16397906,11.8944932 C4.16397906,11.9729754 4.12073075,12.0396437 4.05830861,12.0666303 C4.00608719,12.0885364 3.94248469,12.0756095 3.89604184,12.0283424 L2.81273785,10.9185713 C2.51244726,10.6137595 2.08059367,10.4580303 1.62342058,10.4692302 C1.19333084,10.4803859 0.772846472,10.6393398 0.502923797,10.9170714 C-0.116578846,11.5544967 -0.352697786,12.6134536 0.369091724,13.3593965 L5.35312918,18.4583179 C5.45268133,18.5564543 5.55000217,18.6341302 5.6616487,18.7023381 C5.6583384,18.7003336 5.66036787,18.7018251 5.69570648,18.7288303 C6.67237983,19.5471244 7.76485073,19.8917318 9.73403141,19.8917318 C12.1890227,19.8917318 13.4969678,19.2666227 14.2414282,18.1371002 C14.8730655,17.1825452 15.0714834,15.9507906 15.0714834,13.8359936 Z" id="Fill-1"></path>
                <path d="M10.2324607,4.62296887 C10.2324607,2.08070231 8.22212914,0.0122106943 5.7513438,0.0122106943 C3.28055846,0.0122106943 1.27022688,2.08070231 1.27022688,4.62296887" id="Fill-2" stroke-linecap="round" stroke-linejoin="round"></path>
            </g>
            <rect id="Rectangle-11" fill="#FFFFFF" opacity="0.01" x="0" y="0" width="24" height="22"></rect>
        </g>
    </g>
</svg>