<?xml version="1.0" encoding="UTF-8" standalone="no"?>
<svg width="24px" height="27px" viewBox="0 0 24 27" version="1.1" xmlns="http://www.w3.org/2000/svg" xmlns:xlink="http://www.w3.org/1999/xlink">
    <!-- Generator: Sketch 43.1 (39012) - http://www.bohemiancoding.com/sketch -->
    <title>operation_list</title>
    <desc>Created with Sketch.</desc>
    <defs>
        <linearGradient x1="17.6953941%" y1="8.08835582%" x2="100%" y2="100%" id="linearGradient-1">
            <stop stop-color="#29B6F6" offset="0%"></stop>
            <stop stop-color="#4195F2" offset="56.4267812%"></stop>
            <stop stop-color="#547BEF" offset="100%"></stop>
        </linearGradient>
    </defs>
    <g id="Page-1" stroke="none" stroke-width="1" fill="none" fill-rule="evenodd">
        <g id="2操作" transform="translate(-35.000000, -145.000000)" fill="url(#linearGradient-1)">
            <g id="Group-3" transform="translate(0.000000, 79.000000)">
                <path d="M54.4453516,69.5009129 L54.4453516,67.3206522 C54.4453516,66.5923064 53.8305078,66 53.0781641,66 L40.9232813,66 C40.1691406,66 39.5549219,66.5923064 39.5549219,67.3206522 L39.5549219,69.5009129 L36.5757813,69.5009129 C35.2534815,69.5009129 35,70.014753 35,70.9655868 L35,91.5341797 C35,92.6326723 35.5540815,93 36.5757813,93 L57.4269531,93 C58.5151646,93 59,92.4090095 59,91.5341797 L59,70.9655868 C59,69.9655868 58.8043114,69.5009129 57.4269922,69.5009129 L54.4453516,69.5009129 Z M41.1404688,70.8232846 L52.8594531,70.8232846 L52.8594531,67.5315897 L41.1404688,67.5315897 L41.1404688,70.8232846 Z M45.3726953,87.0864895 L45.3726953,87.9887058 L43.1781641,87.9887058 L43.1781641,88.5393597 L45.3726953,88.5393597 L45.3726953,89.4431046 L43.1781641,89.4431046 L43.1781641,90.9464164 L41.9230859,90.9464164 L41.9230859,89.4431046 L39.7283594,89.4431046 L39.7283594,88.5393597 L41.9230859,88.5393597 L41.9230859,87.9887058 L39.7283594,87.9887058 L39.7283594,87.0864895 L41.4385156,87.0864895 L38.8334375,83.3637483 L40.2832422,83.3637483 L42.5607422,86.7402768 L44.8492578,83.3637483 L46.2671875,83.3637483 L43.6619141,87.0864895 L45.3726953,87.0864895 L45.3726953,87.0864895 Z M55.2211328,90.2222741 L48.4750391,90.2222741 C48.0367578,90.2222741 47.6836328,89.8803032 47.6836328,89.4568614 C47.6836328,89.0342221 48.0367578,88.6910666 48.4750391,88.6910666 L55.2211328,88.6910666 C55.6586328,88.6910666 56.0144922,89.03384 56.0144922,89.4568614 C56.0144922,89.8802649 55.6594141,90.2222741 55.2211328,90.2222741 L55.2211328,90.2222741 Z M55.2211328,85.6179518 L48.4750391,85.6179518 C48.0367578,85.6179518 47.6836328,85.2751783 47.6836328,84.8521951 C47.6836328,84.4287916 48.0367578,84.0864003 48.4750391,84.0864003 L55.2211328,84.0864003 C55.6586328,84.0864003 56.0144922,84.4287916 56.0144922,84.8521951 C56.0144922,85.2751783 55.6594141,85.6179518 55.2211328,85.6179518 L55.2211328,85.6179518 Z M55.2211328,80.8600119 L38.7810938,80.8600119 C38.3423828,80.8600119 37.9885156,80.5180027 37.9885156,80.0945992 C37.9885156,79.6719217 38.3424219,79.3301418 38.7810938,79.3301418 L55.2211328,79.3301418 C55.6586328,79.3301418 56.0144922,79.6719217 56.0144922,80.0945992 C56.0144922,80.518767 55.6594141,80.8600119 55.2211328,80.8600119 L55.2211328,80.8600119 Z M55.2211328,76.2560717 L38.7810938,76.2560717 C38.3423828,76.2560717 37.9885156,75.9141007 37.9885156,75.4905061 C37.9885156,75.0680579 38.3424219,74.7249023 38.7810938,74.7249023 L55.2211328,74.7249023 C55.6586328,74.7249023 56.0144922,75.0674847 56.0144922,75.4905061 C56.0144922,75.9140625 55.6594141,76.2560717 55.2211328,76.2560717 L55.2211328,76.2560717 Z" id="operation_list"></path>
            </g>
        </g>
    </g>
</svg>