<?xml version="1.0" encoding="UTF-8" standalone="no"?>
<svg width="70px" height="70px" viewBox="0 0 70 70" version="1.1" xmlns="http://www.w3.org/2000/svg" xmlns:xlink="http://www.w3.org/1999/xlink">
    <!-- Generator: Sketch 43.1 (39012) - http://www.bohemiancoding.com/sketch -->
    <title> operation_upload</title>
    <desc>Created with Sketch.</desc>
    <defs>
        <rect id="path-1" x="0" y="0" width="70" height="70"></rect>
        <mask id="mask-2" maskContentUnits="userSpaceOnUse" maskUnits="objectBoundingBox" x="0" y="0" width="70" height="70" fill="white">
            <use xlink:href="#path-1"></use>
        </mask>
    </defs>
    <g id="Page-1" stroke="none" stroke-width="1" fill="none" fill-rule="evenodd">
        <g id="2操作-上传附件" transform="translate(-15.000000, -179.000000)" stroke="#E5E5E5">
            <g id="-operation_upload" transform="translate(15.000000, 179.000000)">
                <use id="Rectangle-18" mask="url(#mask-2)" stroke-width="2" stroke-dasharray="2,2" xlink:href="#path-1"></use>
                <path d="M39.9924628,22.1666667 L30.0075796,22.1666667 C28.5541158,22.1666667 27.2643797,23.092638 26.8077729,24.4639716 L25.8875255,27.2279889 L23.2036896,27.2279889 C21.3499746,27.2279889 19.8333333,28.7352979 19.8333333,30.577555 L19.8333333,45.650476 C19.8333333,47.4926911 21.3499746,49 23.2036896,49 L46.7963104,49 C48.6500254,49 50.1666667,47.4926911 50.1666667,45.650476 L50.1666667,30.577555 C50.1666667,28.7352558 48.6500254,27.2279889 46.7963104,27.2279889 L44.1125169,27.2279889 L43.1922271,24.4639716 C42.7356203,23.092638 41.4459266,22.1666667 39.9924628,22.1666667 L39.9924628,22.1666667 Z M35,30.5590684 C31.2772311,30.5590684 28.2592451,33.5583159 28.2592451,37.2581585 C28.2592451,40.9579589 31.2771888,43.9572485 35,43.9572485 C38.7228536,43.9572485 41.7407549,40.9579589 41.7407549,37.2581585 C41.7407549,33.5583159 38.7228536,30.5590684 35,30.5590684 L35,30.5590684 Z" id="相机"></path>
            </g>
        </g>
    </g>
</svg>