<?xml version="1.0" encoding="UTF-8" standalone="no"?>
<svg width="22px" height="22px" viewBox="0 0 22 22" version="1.1" xmlns="http://www.w3.org/2000/svg" xmlns:xlink="http://www.w3.org/1999/xlink">
    <!-- Generator: Sketch 43.1 (39012) - http://www.bohemiancoding.com/sketch -->
    <title> operation_Property</title>
    <desc>Created with Sketch.</desc>
    <defs></defs>
    <g id="Page-1" stroke="none" stroke-width="1" fill="none" fill-rule="evenodd">
        <g id="2操作-上传附件" transform="translate(-15.000000, -288.000000)">
            <g id="-operation_Property" transform="translate(15.000000, 288.000000)">
                <circle id="Oval-8" fill="#29B6F6" cx="11" cy="11" r="11"></circle>
                <g id="房产证明" transform="translate(4.000000, 5.000000)">
                    <polygon id="Fill-1" fill="#FFFFFF" points="3.92825203 1.59419256 6.30264634 1.59419256 6.30264634 0.802984683 3.92825203 0.802984683"></polygon>
                    <path d="M0,2.49539757 C0,1.94565467 0.45566067,1.5 1.00532946,1.5 L1.96461695,1.5 L1.96461695,2.6645917 L3.92648236,2.6645917 L3.92648236,1.5 L6.30376089,1.5 L6.30376089,2.6645917 L8.2692804,2.6645917 L8.2692804,1.5 L8.99323324,1.5 C9.54925517,1.5 9.94610147,1.94399006 9.87979574,2.49018466 L9.51371926,5.50574604 L4.80829781,8.5988263 L4.80827383,11.582876 L0.996277445,11.517172 C0.446048605,11.5076881 0,11.0443356 0,10.5046024 L0,2.49539757 Z" id="Rectangle-19" fill="#FFFFFF"></path>
                    <path d="M1.95706911,5.32635886 C1.95706911,5.38606783 1.97690244,5.43599125 2.01679675,5.47564551 C2.05649187,5.51552735 2.10640244,5.53535449 2.16613008,5.53535449 L8.06476829,5.53535449 C8.12449593,5.53535449 8.17423577,5.51552735 8.21410163,5.47564551 C8.25376829,5.43599125 8.27382927,5.38606783 8.27382927,5.32635886 L8.27382927,4.93820788 C8.27382927,4.88854048 8.25376829,4.84373742 8.21410163,4.80385558 C8.17423577,4.76420131 8.12449593,4.74414661 8.06476829,4.74414661 L2.16613008,4.74414661 C2.10640244,4.74414661 2.05649187,4.76420131 2.01679675,4.80385558 C1.97690244,4.84373742 1.95706911,4.88854048 1.95706911,4.93820788 L1.95706911,5.32635886" id="Fill-2" fill="#29B6F6"></path>
                    <path d="M2.74852439,2.38545733 L3.15173577,2.38545733 C3.2014187,2.38545733 3.25113008,2.3730547 3.30106911,2.34810722 C3.35075203,2.32338731 3.39303659,2.2935186 3.42797967,2.25852954 C3.46278049,2.2237965 3.49006911,2.18388621 3.51013008,2.1391116 C3.52996341,2.09436543 3.53997967,2.04208096 3.53997967,1.98237199 L3.53997967,0.414890591 C3.53997967,0.30545733 3.50264634,0.210986871 3.42795122,0.131223195 C3.35331301,0.0516586433 3.26111789,0.0117768053 3.15170732,0.0117768053 L2.74849593,0.0117768053 C2.63885772,0.0117768053 2.54694715,0.0516586433 2.47225203,0.131223195 C2.39758537,0.210986871 2.36025203,0.30545733 2.36025203,0.414890591 L2.36025203,1.98237199 C2.36025203,2.09200438 2.39758537,2.18647484 2.47225203,2.26603939 C2.54694715,2.34577462 2.63888618,2.38545733 2.74852439,2.38545733" id="Fill-3" fill="#FFFFFF"></path>
                    <path d="M6.88504065,2.32574836 C6.94476829,2.36560175 7.00944715,2.38545733 7.07919106,2.38545733 L7.48240244,2.38545733 C7.5519187,2.38545733 7.61679675,2.36560175 7.67652439,2.32574836 C7.73625203,2.28606565 7.78340244,2.23611379 7.81840244,2.17640481 C7.8531748,2.11669584 7.8706748,2.05212254 7.8706748,1.98237199 L7.8706748,0.414890591 C7.8706748,0.30545733 7.83334146,0.210986871 7.7586748,0.131223195 C7.68397967,0.0516586433 7.59184146,0.0117768053 7.48243089,0.0117768053 L7.07921951,0.0117768053 C6.97956911,0.0117768053 6.88999187,0.0516586433 6.81040244,0.131223195 C6.73064228,0.210986871 6.69094715,0.30545733 6.69094715,0.414890591 L6.69094715,1.98237199 C6.69094715,2.05212254 6.70819106,2.11669584 6.74321951,2.17640481 C6.77796341,2.23611379 6.82531301,2.28606565 6.88504065,2.32574836" id="Fill-4" fill="#FFFFFF"></path>
                    <polyline id="Fill-5" fill="#FFFFFF" points="13.2676463 5.03330416 12.5586545 5.03330416 12.5586545 6.77908753 13.2676463 7.48936543 13.2676463 5.03330416"></polyline>
                    <path d="M9.45358537,2.02373304 L9.45358537,5.52042013 L10.2450122,5.52042013 L10.2450122,1.46001094 C10.2450122,1.09035011 9.95351626,0.802984683 9.44698374,0.802984683 L8.27382927,0.802984683 L8.27382927,1.24982057 L8.27382927,1.67600438 L9.05037398,1.67600438 C9.26302033,1.67600438 9.45358537,1.7707593 9.45358537,2.02373304" id="Fill-6" fill="#FFFFFF"></path>
                    <path d="M6.17212195,9.64964114 L6.17212195,12.9825624 L12.9129797,12.9825624 L12.9129797,9.64964114 L9.44194715,7.38402845 L6.17212195,9.64964114 Z" id="Fill-7" fill="#FFFFFF"></path>
                    <path d="M0.777341463,2.23392341 C0.777341463,1.46695186 1.6323374,1.59422101 1.4379878,1.59422101 L1.95709756,1.59422101 L1.95709756,0.802984683 L0.682955285,0.802984683 C0.14802439,0.802984683 0.0246422764,1.4926674 0.000853658537,1.75548359 L0.000853658537,10.7744683 C0.0108414634,11.8193326 0.719235772,11.8352626 0.951857724,11.8352626 C2.20642276,11.8352626 4.6756405,11.8352626 4.82746656,11.8352626 L4.82746656,11.0440263 C4.82746656,11.0440263 2.75740244,11.0440263 1.69106911,11.0440263 C1.17833333,11.0540394 0.777341463,11.0140153 0.777341463,10.0554004 L0.777341463,2.23392341 Z" id="Fill-8" fill="#FFFFFF"></path>
                    <polyline id="Fill-9" fill="#FFFFFF" points="9.51231707 5.8913895 5.1078374 8.81465427 5.1078374 9.81798687 9.4589065 6.89585996 13.9770366 9.81798687 13.9770366 8.81465427 9.51231707 5.8913895"></polyline>
                    <path d="M2.04664634,7.89410066 C1.9869187,7.89410066 1.95704065,7.95895842 1.95704065,8.08816193 L1.95704065,8.47628446 C1.95704065,8.615814 1.9869187,8.68530853 2.04664634,8.68530853 L4.52558537,8.68530853 C4.5454187,8.68530853 4.56035772,8.68041575 4.57037398,8.67037418 C4.5801626,8.66058862 4.58761789,8.64565427 4.59276829,8.62559956 C4.5976626,8.60577243 4.60258537,8.58335667 4.60773577,8.55843764 C4.61263008,8.53368928 4.61519106,8.50618162 4.61519106,8.47631291 L4.61519106,8.08819037 C4.61519106,7.95898687 4.58528455,7.8941291 4.52555691,7.8941291 L2.04664634,7.8941291 L2.04664634,7.89410066" id="Fill-10" fill="#29B6F6"></path>
                    <path d="M0.000199186992,1.95843326 C0.00169918699,1.94998822 0.00419918699,1.93899626 0.00569918699,1.93014908 L0.00569918699,1.70843326 C0.00569918699,1.81366114 0.00219918699,1.8785405 0.000199186992,1.95843326" id="Fill-11" fill="#FFFFFF"></path>
                </g>
            </g>
        </g>
    </g>
</svg>