<?xml version="1.0" encoding="UTF-8" standalone="no"?>
<svg width="22px" height="22px" viewBox="0 0 22 22" version="1.1" xmlns="http://www.w3.org/2000/svg" xmlns:xlink="http://www.w3.org/1999/xlink">
    <!-- Generator: Sketch 43.1 (39012) - http://www.bohemiancoding.com/sketch -->
    <title>operation_video</title>
    <desc>Created with Sketch.</desc>
    <defs></defs>
    <g id="Page-1" stroke="none" stroke-width="1" fill="none" fill-rule="evenodd">
        <g id="2操作-上传附件" transform="translate(-15.000000, -768.000000)">
            <g id="operation_video" transform="translate(15.000000, 768.000000)">
                <circle id="Oval-8" fill="#29B6F6" cx="11" cy="11" r="11"></circle>
                <g id="Group-5" transform="translate(6.000000, 6.000000)">
                    <rect id="Rectangle-5" fill="#FFFFFF" x="0" y="0" width="9.58333333" height="11.5714286" rx="1"></rect>
                    <g id="线下面签" transform="translate(0.833333, 0.857143)" fill="#29B6F6">
                        <path d="M6.79059968,1.04163719 L0.680280929,1.04163719 C0.549540789,1.04163719 0.442571583,0.930053646 0.442571583,0.793673753 C0.442571583,0.657293861 0.549540789,0.545710312 0.680280929,0.545710312 L6.79059968,0.545710312 C6.92133982,0.545710312 7.02830902,0.657293861 7.02830902,0.793673753 C7.02830902,0.930053646 6.92252836,1.04163719 6.79059968,1.04163719 Z M6.78703404,3.39728989 L5.5984873,3.39728989 C5.46774716,3.39728989 5.36077796,3.28570634 5.36077796,3.14932645 C5.36077796,3.01294655 5.46774716,2.901363 5.5984873,2.901363 L6.78703404,2.901363 C6.91777418,2.901363 7.02474338,3.01294655 7.02474338,3.14932645 C7.02474338,3.28570634 6.91777418,3.39728989 6.78703404,3.39728989 Z M6.78703404,5.75170276 L5.5984873,5.75170276 C5.46774716,5.75170276 5.36077796,5.64011921 5.36077796,5.50373932 C5.36077796,5.36735943 5.46774716,5.25577588 5.5984873,5.25577588 L6.78703404,5.25577588 C6.91777418,5.25577588 7.02474338,5.36735943 7.02474338,5.50373932 C7.02474338,5.64011921 6.91777418,5.75170276 6.78703404,5.75170276 Z M6.11312804,10.2559587 C6.0537007,10.2559587 5.99546191,10.233642 5.94910859,10.1877687 L4.92458131,9.1698788 C4.82949757,9.07565269 4.82593193,8.91819591 4.91626148,8.81901053 C5.00659103,8.71982515 5.15753647,8.7161057 5.25262021,8.81033181 L6.11312804,9.66580568 L7.89951378,7.89038744 C7.99459751,7.79616134 8.14554295,7.79988079 8.2358725,7.89906616 C8.32620205,7.99825154 8.32263641,8.15570833 8.22755267,8.24993443 L6.27714749,10.1877687 C6.23198271,10.233642 6.17255538,10.2559587 6.11312804,10.2559587 L6.11312804,10.2559587 Z" id="Fill-1" stroke="#29B6F6" stroke-width="0.2"></path>
                        <path d="M1.97916667,6.64283622 C1.97916667,6.34696394 2.21233114,6.1071167 2.49999491,6.1071167 C2.7876943,6.1071167 3.02083333,6.34696394 3.02083333,6.64283622 C3.02083333,6.93870326 2.7876943,7.17855573 2.49999491,7.17855573 C2.21233114,7.17855573 1.97916667,6.93870326 1.97916667,6.64283622 Z M3.15105693,5.57140765 C3.15105693,5.27553537 3.38419596,5.03568813 3.67186991,5.03568813 C3.95954895,5.03568813 4.19271851,5.27553537 4.19271851,5.57140765 C4.19271851,5.86731131 3.95954895,6.1071167 3.67186991,6.1071167 C3.38419596,6.1071167 3.15105693,5.86731655 3.15105693,5.57140765 Z M1.97916667,4.50001046 C1.97916667,4.20409633 2.21233114,3.96429095 2.49999491,3.96429095 C2.7876943,3.96429095 3.02083333,4.20409633 3.02083333,4.50001046 C3.02083333,4.79588797 2.7876943,5.03568813 2.49999491,5.03568813 C2.21233114,5.03568813 1.97916667,4.79588797 1.97916667,4.50001046 Z M0.937510173,5.57140765 C0.937510173,5.27553537 1.17066447,5.03568813 1.45833842,5.03568813 C1.74603271,5.03568813 1.97917175,5.27553537 1.97917175,5.57140765 C1.97917175,5.86731131 1.74603271,6.1071167 1.45833842,6.1071167 C1.17066447,6.1071167 0.937510173,5.86731655 0.937510173,5.57140765 Z M2.23958333,5.57140765 C2.23958333,5.42346889 2.35617574,5.30354527 2.49999491,5.30354527 C2.6438446,5.30354527 2.76042684,5.42346889 2.76042684,5.57140765 C2.76042684,5.71938825 2.6438446,5.83927002 2.49999491,5.83927002 C2.35618083,5.83927002 2.23958333,5.71938825 2.23958333,5.57140765 Z M3.60809326,7.38679374 C3.73634338,7.5793736 4.03711955,7.71428571 4.38801575,7.71428571 C4.45525614,7.71428571 4.58333333,7.29844796 4.58333333,7.29844796 C4.34295146,7.26250174 4.14246114,7.161506 4.02996318,7.02655727 C4.37361654,6.6443743 4.58333333,6.13309675 4.58333333,5.57141811 C4.58333333,4.38793945 3.65060425,3.42857143 2.5,3.42857143 C1.34939575,3.42857143 0.416666667,4.38793945 0.416666667,5.57140765 C0.416666667,6.75490723 1.34939575,7.71428048 2.5,7.71428048 C2.90711466,7.71428048 3.28719076,7.59443534 3.60809326,7.38679374 L3.60809326,7.38679374 Z" id="视频-(1)"></path>
                    </g>
                </g>
            </g>
        </g>
    </g>
</svg>