<?xml version="1.0" encoding="UTF-8" standalone="no"?>
<svg width="22px" height="22px" viewBox="0 0 22 22" version="1.1" xmlns="http://www.w3.org/2000/svg" xmlns:xlink="http://www.w3.org/1999/xlink">
    <!-- Generator: Sketch 43.1 (39012) - http://www.bohemiancoding.com/sketch -->
    <title>operation_img</title>
    <desc>Created with Sketch.</desc>
    <defs></defs>
    <g id="Page-1" stroke="none" stroke-width="1" fill="none" fill-rule="evenodd">
        <g id="2操作-上传附件" transform="translate(-15.000000, -608.000000)">
            <g id="operation_img" transform="translate(15.000000, 608.000000)">
                <circle id="Oval-8" fill="#29B6F6" cx="11" cy="11" r="11"></circle>
                <g id="线下面签" transform="translate(6.000000, 5.000000)">
                    <rect id="Rectangle-5" fill="#FFFFFF" x="0" y="0" width="10.5416667" height="12.5357143" rx="1"></rect>
                    <path d="M8.38632631,2.05701172 L1.66497569,2.05701172 C1.52116153,2.05701172 1.40349541,1.93612955 1.40349541,1.78838466 C1.40349541,1.64063978 1.52116153,1.5197576 1.66497569,1.5197576 L8.38632631,1.5197576 C8.53014046,1.5197576 8.64780659,1.64063978 8.64780659,1.78838466 C8.64780659,1.93612955 8.53144787,2.05701172 8.38632631,2.05701172 Z M8.38240411,4.60896881 L7.0750027,4.60896881 C6.93118855,4.60896881 6.81352242,4.48808663 6.81352242,4.34034174 C6.81352242,4.19259686 6.93118855,4.07171468 7.0750027,4.07171468 L8.38240411,4.07171468 C8.52621826,4.07171468 8.64388439,4.19259686 8.64388439,4.34034174 C8.64388439,4.48808663 8.52621826,4.60896881 8.38240411,4.60896881 Z M8.38240411,7.15958275 L7.0750027,7.15958275 C6.93118855,7.15958275 6.81352242,7.03870058 6.81352242,6.89095569 C6.81352242,6.74321081 6.93118855,6.62232863 7.0750027,6.62232863 L8.38240411,6.62232863 C8.52621826,6.62232863 8.64388439,6.74321081 8.64388439,6.89095569 C8.64388439,7.03870058 8.52621826,7.15958275 8.38240411,7.15958275 Z M7.64110751,12.0391933 C7.57573744,12.0391933 7.51167477,12.0150169 7.46068612,11.9653209 L6.3337061,10.8626068 C6.22911399,10.7605285 6.22519179,10.5899503 6.32455429,10.4824995 C6.4239168,10.3750487 6.58995678,10.3710193 6.69454889,10.4730976 L7.64110751,11.3998609 L9.60613182,9.47649116 C9.71072393,9.37441288 9.87676391,9.37844228 9.97612642,9.48589311 C10.0754889,9.59334393 10.0715667,9.76392211 9.96697461,9.8660004 L7.8215289,11.9653209 C7.77184765,12.0150169 7.70647758,12.0391933 7.64110751,12.0391933 L7.64110751,12.0391933 Z" id="Fill-1" stroke="#29B6F6" stroke-width="0.2" fill="#29B6F6"></path>
                    <path d="M5.43404872,4.64285714 L1.67556742,4.64285714 C1.5602109,4.64285714 1.46666702,4.73751638 1.46666702,4.85437104 L1.46666702,8.23862178 C1.46666702,8.35538404 1.5602109,8.45005039 1.67557443,8.45005039 L5.4342171,8.45005039 C5.54958765,8.45005039 5.64290001,8.35538404 5.64290001,8.23862178 L5.64290001,4.85437814 C5.64277372,4.73751638 5.5493912,4.64285714 5.43404872,4.64285714 M5.01639525,7.81538078 L2.09306653,7.81538078 L2.09306653,6.75807427 L2.71962742,6.12341887 L3.76363129,7.18091727 L4.39019919,6.54645377 L5.01659871,7.18091727 L5.01659871,7.81538078 L5.01639525,7.81538078 M4.59876984,6.12341887 C4.36795858,6.12341887 4.18130581,5.934008 4.18130581,5.70047636 C4.18130581,5.46652541 4.36795858,5.27742725 4.59876984,5.27742725 C4.82972143,5.27742725 5.01640226,5.46653252 5.01640226,5.70047636 C5.01640226,5.934008 4.82972143,6.12341887 4.59876984,6.12341887" id="Fill-2" fill="#29B6F6"></path>
                </g>
            </g>
        </g>
    </g>
</svg>