<?xml version="1.0" encoding="UTF-8" standalone="no"?>
<svg width="17px" height="16px" viewBox="0 0 17 16" version="1.1" xmlns="http://www.w3.org/2000/svg" xmlns:xlink="http://www.w3.org/1999/xlink">
    <!-- Generator: Sketch 43.1 (39012) - http://www.bohemiancoding.com/sketch -->
    <title>query_serial</title>
    <desc>Created with Sketch.</desc>
    <defs></defs>
    <g id="Page-1" stroke="none" stroke-width="1" fill="none" fill-rule="evenodd">
        <g id="3查询-业务查询-查询结果" transform="translate(-14.000000, -281.000000)" fill="#29B6F6">
            <g id="query_serial" transform="translate(15.000000, 282.000000)">
                <path d="M12.1866109,0.0140880503 L2.82594142,0.0140880503 C1.28117155,0.0140880503 0.0158995816,1.34540881 0.0158995816,2.97081761 L0.0158995816,7.42264151 L0.770711297,7.42264151 L0.770711297,2.99194969 C0.770711297,1.74163522 1.74309623,0.718490566 2.93138075,0.718490566 L12.0811715,0.718490566 C13.2694561,0.718490566 14.241841,1.74163522 14.241841,2.99194969 L14.241841,11.0186164 C14.241841,12.2689308 13.2694561,13.2920755 12.0811715,13.2920755 L2.93138075,13.2920755 C1.74309623,13.2920755 0.770711297,12.2689308 0.770711297,11.0186164 L0.770711297,10.1222642 L0.0158995816,10.1222642 L0.0158995816,11.0397484 C0.0158995816,12.6651572 1.28117155,13.996478 2.82594142,13.996478 L12.1866109,13.996478 C13.7313808,13.996478 14.9966527,12.6651572 14.9966527,11.0397484 L14.9966527,2.97081761 C14.9966527,1.3436478 13.7330544,0.0140880503 12.1866109,0.0140880503" id="Fill-1" stroke="#29B6F6" stroke-width="0.3"></path>
                <path d="M3.8334728,8.1763522 L3.8334728,10.650566 L7.01338912,10.650566 L7.01338912,8.16754717 L6.24351464,8.16754717 L6.24351464,8.1763522 L4.60334728,8.1763522 L4.60334728,8.16754717 L3.8334728,8.16754717 L3.8334728,8.1763522 Z M7.01338912,7.41735849 L7.01338912,3.36176101 L3.8334728,3.36176101 L3.8334728,7.42440252 L7.01338912,7.42440252 L7.01338912,7.41735849 Z M11.1807531,9.83874214 L11.1807531,3.36176101 L8.00083682,3.36176101 L8.00083682,10.648805 L11.1807531,10.648805 L11.1807531,9.83874214 Z" id="Fill-2"></path>
            </g>
        </g>
    </g>
</svg>