<?xml version="1.0" encoding="UTF-8" standalone="no"?>
<svg width="24px" height="24px" viewBox="0 0 24 24" version="1.1" xmlns="http://www.w3.org/2000/svg" xmlns:xlink="http://www.w3.org/1999/xlink">
    <!-- Generator: Sketch 43.1 (39012) - http://www.bohemiancoding.com/sketch -->
    <title>query_tel</title>
    <desc>Created with Sketch.</desc>
    <defs></defs>
    <g id="Page-1" stroke="none" stroke-width="1" fill="none" fill-rule="evenodd">
        <g id="3查询-业务查询-查询结果" transform="translate(-172.000000, -278.000000)">
            <g id="query_tel" transform="translate(173.000000, 279.000000)">
                <path d="M14.025536,9.83599426 L14.5681644,9.82122423 C14.5323513,9.29992089 14.3161609,8.81366743 13.9593874,8.45227243 C13.6021972,8.09166454 13.1481681,7.89945351 12.6815173,7.91186219 L12.7236567,8.5184366 C13.044972,8.51036479 13.3584488,8.64269315 13.6049592,8.89165381 C13.8510993,9.14118551 13.9999375,9.47597285 14.025536,9.83599426 Z M14.5099005,7.77024276 C15.0769702,8.3449312 15.4211373,9.11834367 15.4786451,9.94904595 L16.0220759,9.9348624 C15.9535511,8.94168979 15.5428341,8.01742855 14.8647299,7.33107745 C14.1865948,6.64551348 13.3237929,6.28097 12.4346211,6.30441376 L12.476344,6.91179072 C13.2214146,6.89189671 13.9432321,7.197144 14.5099005,7.77024276 Z M12.5716399,9.85766315 C12.641754,9.85588827 12.7071157,9.88365346 12.7610746,9.93801087 C12.8142465,9.99176637 12.8465262,10.0640577 12.8512478,10.1418435 L13.3946786,10.1264869 C13.3781375,9.88621545 13.2788915,9.66309077 13.1158731,9.49884557 C12.9528392,9.33379781 12.7441478,9.24557891 12.5295005,9.25108873 L12.5716399,9.85766315 Z M14.7367377,13.4727398 C14.109028,13.1336156 13.4876292,13.0008706 13.0316096,13.1076253 C12.6665656,13.1930816 12.5350244,13.4057731 12.4889503,13.5696479 L12.4771463,13.5964253 C12.4751713,13.5987867 12.3093909,13.8595541 12.0459383,13.9209956 C11.8959119,13.9564313 11.7458702,13.9209956 11.5997476,13.8162163 L11.5627464,13.7910132 C11.1220797,13.390432 10.6977689,12.9469144 10.3024048,12.4722671 C9.93637325,12.0335031 9.59810036,11.572283 9.28956116,11.0913079 C9.16670713,10.8091031 9.14268255,10.571764 9.21986364,10.3858653 C9.31556079,10.1542521 9.53786146,10.0949868 9.54593137,10.0930113 C9.71644881,10.0479141 9.84974897,9.92069429 9.94248355,9.7136978 C10.1630098,9.22015964 10.1104396,8.3825585 9.80544931,7.52822726 C9.35888835,6.2748737 8.50357006,5.37109295 7.89139842,5.51507373 C7.85990569,5.52314555 7.83037259,5.5361407 7.78449906,5.55464568 C7.33320108,5.62810999 6.95201723,5.8226978 6.65509686,6.12913348 C5.24315508,7.59064105 6.12643263,11.2161664 8.62327635,14.2109018 C10.5772756,16.5537341 13.0906758,17.920911 14.7359353,17.5353006 C15.1226431,17.4447049 15.4506704,17.2619393 15.7117777,16.9905689 C15.9917559,16.7018357 16.2173894,16.2709274 16.3355218,15.7911561 C16.3441935,15.7580663 16.3544237,15.7171053 16.36703,15.6588123 C16.5048666,15.0144254 15.7743774,14.0336306 14.7367377,13.4727398 Z" id="拨打电话" fill="#29B6F6"></path>
                <circle id="Oval-7" stroke="#29B6F6" cx="11" cy="11" r="11"></circle>
            </g>
        </g>
    </g>
</svg>