<?xml version="1.0" encoding="UTF-8" standalone="no"?>
<svg width="24px" height="24px" viewBox="0 0 24 24" version="1.1" xmlns="http://www.w3.org/2000/svg" xmlns:xlink="http://www.w3.org/1999/xlink">
    <!-- Generator: Sketch 43.1 (39012) - http://www.bohemiancoding.com/sketch -->
    <title>query_message</title>
    <desc>Created with Sketch.</desc>
    <defs></defs>
    <g id="Page-1" stroke="none" stroke-width="1" fill="none" fill-rule="evenodd">
        <g id="3查询-业务查询-查询结果" transform="translate(-209.000000, -278.000000)">
            <g id="query_message" transform="translate(210.000000, 279.000000)">
                <circle id="Oval-7" stroke="#29B6F6" cx="11" cy="11" r="11"></circle>
                <g id="短信-2" transform="translate(5.000000, 6.000000)">
                    <path d="M10.7417697,0.0135231561 L1.26131953,0.0135231561 C0.574214748,0.0135231561 0.0119534282,0.572634648 0.0119534282,1.25593997 L0.0119534282,7.75278216 C0.0119534282,8.43607204 0.5741837,8.99521441 1.26131953,8.99521441 L10.7417697,8.99521441 C11.42889,8.99521441 11.9911669,8.43608748 11.9911669,7.75278216 L11.9911669,1.25593997 C11.9911514,0.572634648 11.42889,0.0135231561 10.7417697,0.0135231561 Z" id="Fill-1" fill="#29B6F6"></path>
                    <path d="M9.7767555,1.93223671 L6.10652523,4.6695952 L2.43631048,1.93223671 C2.26390168,1.80361235 2.01910479,1.83837736 1.88974386,2.00990223 C1.76038292,2.18147341 1.7953273,2.42481304 1.96782924,2.55345283 L5.87233118,5.46553173 C5.87242432,5.46562436 5.87257956,5.46570154 5.87264166,5.46576329 C5.88121087,5.47213894 5.89001294,5.47814408 5.89904787,5.48376329 C5.89924968,5.48391767 5.89954463,5.48407204 5.89987063,5.48421098 C5.90775679,5.48913551 5.91582924,5.49376672 5.92407245,5.49808919 C5.92593532,5.49903087 5.92772057,5.49997256 5.92958344,5.5008988 C5.9378577,5.50511321 5.94619405,5.50912693 5.95476326,5.51267753 C5.95633118,5.51337221 5.95793014,5.51386621 5.95946701,5.51451458 C5.96635964,5.517247 5.97332988,5.51982504 5.9803467,5.52221784 C5.98399483,5.52349914 5.98764295,5.52457976 5.99135317,5.52576844 C5.99650712,5.52734305 6.00172316,5.52879417 6.0069392,5.53013722 C6.01064942,5.53112521 6.01431307,5.53217496 6.01805433,5.53303945 C6.02597154,5.53481475 6.03391979,5.53637393 6.04199224,5.53780961 C6.04564036,5.53836535 6.04921087,5.53882847 6.05287451,5.53927616 C6.0585097,5.5400789 6.06409832,5.54074271 6.06970246,5.54126758 C6.07311772,5.54156089 6.07653299,5.54196226 6.0799793,5.54214751 C6.08825356,5.54270326 6.09641915,5.54302744 6.1046934,5.54312007 C6.10522122,5.54312007 6.10574903,5.54319726 6.10627684,5.54319726 L6.1069599,5.54319726 C6.10745666,5.54319726 6.10801552,5.54312007 6.10852781,5.54312007 C6.1167555,5.54302744 6.12498318,5.54270326 6.13317982,5.54214751 C6.13659508,5.54194683 6.14005692,5.54156089 6.14347219,5.54126758 C6.14913842,5.54074271 6.15471151,5.5400789 6.16036223,5.53927616 C6.16401035,5.53882847 6.16759638,5.53836535 6.17122898,5.53780961 C6.1792859,5.53645111 6.1872652,5.53484563 6.19526003,5.53303945 C6.19889263,5.53217496 6.20258732,5.53112521 6.20621992,5.53013722 C6.21143596,5.52879417 6.21672962,5.52732762 6.22188357,5.52570669 C6.22553169,5.52457976 6.22916429,5.5234837 6.23281242,5.52221784 C6.23990686,5.51987136 6.24690815,5.51729331 6.25383182,5.51445283 C6.2553066,5.51385077 6.25687451,5.51335678 6.25839586,5.51266209 C6.26694955,5.50911149 6.27530142,5.50512864 6.28363777,5.50088336 C6.28550065,5.50000343 6.2872859,5.49907719 6.28914877,5.49808919 C6.29726779,5.49376672 6.30529366,5.48925901 6.31321087,5.48436535 L6.31426649,5.48367067 C6.32320828,5.47808233 6.33193273,5.47213894 6.34039327,5.46585592 C6.34053299,5.46571698 6.34068823,5.46562436 6.34085899,5.46554717 L10.245392,2.5534837 C10.4178784,2.42482847 10.4528072,2.18145798 10.3233687,2.0099331 C10.1939767,1.83843911 9.94928849,1.80361235 9.7767555,1.93223671 Z" id="Fill-2" fill="#FFFFFF"></path>
                </g>
            </g>
        </g>
    </g>
</svg>