<?xml version="1.0" encoding="UTF-8" standalone="no"?>
<svg width="18px" height="18px" viewBox="0 0 18 18" version="1.1" xmlns="http://www.w3.org/2000/svg" xmlns:xlink="http://www.w3.org/1999/xlink">
    <!-- Generator: Sketch 43.1 (39012) - http://www.bohemiancoding.com/sketch -->
    <title>task_department</title>
    <desc>Created with Sketch.</desc>
    <defs></defs>
    <g id="Page-1" stroke="none" stroke-width="1" fill="none" fill-rule="evenodd">
        <g id="Group-2" transform="translate(3.000000, 2.000000)">
            <polygon id="部门-(1)" fill="#808080" points="6.96461421 6.04983426 6.96461421 3.03289276 6.02640529 3.03289276 6.02640529 6.04983426 1.00107242 6.04983426 1.00107242 10.0453426 3.55271368e-15 10.0453426 3.55271368e-15 13 2.98205153 13 2.98205153 10.0453426 2.00196379 10.0453426 2.00196379 7.04866156 6.02640529 7.04866156 6.02640529 10.0453426 5.00447493 10.0453426 5.00447493 13 7.98652646 13 7.98652646 10.0453426 6.96461421 10.0453426 6.96461421 7.04866156 10.9785181 7.04866156 10.9785181 10.0453426 9.9883273 10.0453426 9.9883273 13 12.9699986 13 12.9699986 10.0453426 11.9742674 10.0453426 11.9742674 6.04983426"></polygon>
            <rect id="Rectangle-5" stroke="#808080" stroke-width="0.8" x="4.4" y="0.4" width="4.2" height="2.2"></rect>
        </g>
    </g>
</svg>