<?xml version="1.0" encoding="UTF-8" standalone="no"?>
<svg width="24px" height="22px" viewBox="0 0 24 22" version="1.1" xmlns="http://www.w3.org/2000/svg" xmlns:xlink="http://www.w3.org/1999/xlink">
    <!-- Generator: Sketch 43.1 (39012) - http://www.bohemiancoding.com/sketch -->
    <title>task_2</title>
    <desc>Created with Sketch.</desc>
    <defs></defs>
    <g id="Page-1" stroke="none" stroke-width="1" fill="none" fill-rule="evenodd">
        <g id="Group-11">
            <path d="M17.7499759,4.69983645 L12.6487219,4.69983645 L12.6487219,3.84600793 C12.6487219,3.3872867 12.2671346,3 11.7963791,3 L5.84986329,3 C5.37722429,3 5,3.37739173 5,3.84295598 L5,19.9982215 L6.69848681,19.9982215 L6.69848681,19.2004962 C6.69927359,19.1854988 6.69970274,19.1704537 6.69970274,19.1552655 L6.69970274,11.4991107 L10.9489953,11.4991107 L10.9489953,12.3529393 C10.9489953,12.8116605 11.3285561,13.1989472 11.7967606,13.1989472 L17.7499282,13.1989472 C18.2183949,13.1989472 18.5977173,12.8201725 18.5977173,12.3529393 L18.5977173,5.54584438 C18.5976934,5.08712315 18.2181327,4.69983645 17.7499282,4.69983645 L17.7499759,4.69983645" id="任务" fill="#29B6F6"></path>
            <rect id="Rectangle-11" fill="#FFFFFF" opacity="0.01" x="0" y="0" width="24" height="22"></rect>
        </g>
    </g>
</svg>