<?xml version="1.0" encoding="UTF-8" standalone="no"?>
<svg width="38px" height="38px" viewBox="0 0 38 38" version="1.1" xmlns="http://www.w3.org/2000/svg" xmlns:xlink="http://www.w3.org/1999/xlink">
    <!-- Generator: Sketch 43.1 (39012) - http://www.bohemiancoding.com/sketch -->
    <title>task_check1</title>
    <desc>Created with Sketch.</desc>
    <defs>
        <linearGradient x1="50%" y1="100%" x2="50%" y2="0%" id="linearGradient-1">
            <stop stop-color="#FAE264" offset="0%"></stop>
            <stop stop-color="#FFB41C" offset="100%"></stop>
        </linearGradient>
    </defs>
    <g id="Page-1" stroke="none" stroke-width="1" fill="none" fill-rule="evenodd">
        <g id="Group" transform="translate(2.000000, 1.000000)" fill="url(#linearGradient-1)">
            <path d="M15.3382525,35 L1.99857943,35 C0.894794491,35 0,34.0996545 0,32.9925388 L0,2.00746124 C0,0.89877101 0.902101334,0 1.99857943,0 L27.0784128,0 C28.1821978,0 29.0769922,0.900345519 29.0769922,2.00746124 L29.0769922,13.8026883 C28.1921304,13.2921832 27.1647911,13 26.0690275,13 C22.7465215,13 20.0530981,15.6862915 20.0530981,19 C20.0530981,20.775149 20.8260379,22.3702463 22.0545642,23.468779 L19.7928572,26.89194 L17.0779839,26.89194 C15.0398236,26.89194 15.0398236,28.3386923 15.0398236,30.1868361 L15.0398236,33.8737183 C15.0398236,34.2792724 15.1485041,34.6647538 15.3382525,35 Z M4.01061962,7 C4.01061962,7.55613518 4.45655971,8 5.00665468,8 L21.0623729,8 C21.6122803,8 22.0584079,7.55228475 22.0584079,7 C22.0584079,6.44386482 21.6124678,6 21.0623729,6 L5.00665468,6 C4.4567472,6 4.01061962,6.44771525 4.01061962,7 Z M4.01061962,15 C4.01061962,15.5561352 4.46259647,16 5.02013817,16 L17.0382697,16 C17.596645,16 18.0477883,15.5522847 18.0477883,15 C18.0477883,14.4438648 17.5958114,14 17.0382697,14 L5.02013817,14 C4.46176295,14 4.01061962,14.4477153 4.01061962,15 Z M33.2015159,28.4230194 C34.2206569,28.4230194 35,29.2301943 35,30.2466368 L35,33.1763827 C35,34.1928251 34.1906821,35 33.2015159,35 L18.8436175,35 C17.8544512,35 17.0451334,34.1629297 17.0451334,33.1763827 L17.0451334,30.2466368 C17.0451334,29.2301943 17.8544512,28.4230194 18.8436175,28.4230194 L20.8219501,28.4230194 L24.688691,22.9820628 C23.10003,22.4140508 21.96099,20.9192825 21.96099,19.1255605 C21.96099,16.8535127 23.7894489,15 26.0375541,15 C28.2856592,15 30.1141181,16.8535127 30.1141181,19.1255605 C30.1141181,20.9192825 28.9750781,22.4140508 27.3864172,22.9820628 L31.2231833,28.4230194 L33.2015159,28.4230194 Z" id="Combined-Shape"></path>
        </g>
    </g>
</svg>