<?xml version="1.0" encoding="UTF-8" standalone="no"?>
<svg width="30px" height="30px" viewBox="0 0 30 30" version="1.1" xmlns="http://www.w3.org/2000/svg" xmlns:xlink="http://www.w3.org/1999/xlink">
    <!-- Generator: Sketch 43.1 (39012) - http://www.bohemiancoding.com/sketch -->
    <title>task_apply</title>
    <desc>Created with Sketch.</desc>
    <defs></defs>
    <g id="Page-1" stroke="none" stroke-width="1" fill="none" fill-rule="evenodd">
        <g id="task_apply">
            <path d="M15.0046802,0.0187207488 C6.7525741,0.0187207488 0.0280811232,6.74321373 0.0280811232,14.9953198 C0.0280811232,23.2624025 6.7525741,29.9719189 15.0046802,29.9719189 C23.2567863,29.9719189 29.9812793,23.2624025 29.9812793,14.9953198 C29.9812793,6.72823713 23.2567863,0.0187207488 15.0046802,0.0187207488 Z" id="Fill-3" fill="#29B6F6"></path>
            <path d="M22.1485179,12.7638066 C22.6127925,12.7638066 22.9872075,13.1382215 22.9872075,13.6024961 L22.9872075,19.8327613 C22.9872075,21.6599064 21.4895476,23.1575663 19.6624025,23.1575663 L10.5266771,23.1575663 C8.69953198,23.1575663 7.20187207,21.6599064 7.20187207,19.8327613 L7.20187207,10.6970359 C7.20187207,8.8698908 8.69953198,7.37223089 10.5266771,7.37223089 L16.7120125,7.37223089 C17.1613105,7.37223089 17.5357254,7.74664587 17.5357254,8.19594384 C17.5357254,8.64524181 17.1762871,9.01965679 16.7120125,9.01965679 L10.5266771,9.01965679 C9.61310452,9.01965679 8.86427457,9.76848674 8.86427457,10.6820593 L8.86427457,19.8177847 C8.86427457,20.7313573 9.61310452,21.4801872 10.5266771,21.4801872 L19.6624025,21.4801872 C20.575975,21.4801872 21.324805,20.7313573 21.324805,19.8177847 L21.324805,13.5875195 C21.324805,13.1382215 21.6842434,12.7638066 22.1485179,12.7638066 Z M17.4159126,13.3478939 C17.0864275,13.0483619 17.0864275,12.5092044 17.3709828,12.1797192 L21.5195008,7.61185647 C21.8639626,7.28237129 22.3581903,7.2374415 22.6876755,7.56692668 C23.0171607,7.86645866 23.0171607,8.40561622 22.7326053,8.7351014 L18.5840874,13.3029641 C18.2845554,13.6324493 17.7453978,13.6324493 17.4159126,13.3478939 Z M11.35039,17.7060842 C10.901092,17.7060842 10.5266771,17.3316693 10.5266771,16.8823713 C10.5266771,16.4330733 10.8861154,16.0586583 11.35039,16.0586583 L18.8237129,16.0586583 C19.2730109,16.0586583 19.6474259,16.4180967 19.6474259,16.8823713 C19.6474259,17.3316693 19.2879875,17.7060842 18.8237129,17.7060842 L11.35039,17.7060842 Z M11.35039,14.3812793 C10.901092,14.3812793 10.5266771,14.0068643 10.5266771,13.5575663 C10.5266771,13.1082683 10.8861154,12.7338534 11.35039,12.7338534 L15.9182527,12.7338534 C16.3675507,12.7338534 16.7419657,13.0932917 16.7419657,13.5575663 C16.7419657,14.0068643 16.3825273,14.3812793 15.9182527,14.3812793 L11.35039,14.3812793 Z" id="Combined-Shape" fill="#FFFFFF"></path>
        </g>
    </g>
</svg>