<?xml version="1.0" encoding="UTF-8" standalone="no"?>
<svg width="20px" height="20px" viewBox="0 0 20 20" version="1.1" xmlns="http://www.w3.org/2000/svg" xmlns:xlink="http://www.w3.org/1999/xlink">
    <!-- Generator: Sketch 43.1 (39012) - http://www.bohemiancoding.com/sketch -->
    <title>task_about</title>
    <desc>Created with Sketch.</desc>
    <defs></defs>
    <g id="Page-1" stroke="none" stroke-width="1" fill="none" fill-rule="evenodd">
        <g id="1主页-个人中心" transform="translate(-15.000000, -293.000000)">
            <g id="task_about" transform="translate(15.000000, 293.000000)">
                <path d="M10.0000279,0 C4.48462394,0 0,4.48750189 0,10.0000559 C0,15.5124981 4.48750189,20 10.0000279,20 C15.5124981,20 20,15.5124981 20,10.0000559 C20,4.48750189 15.5124981,0 10.0000279,0 M11.5394502,14.6173169 C11.5394502,15.4661436 10.8465076,16.1576053 9.9991897,16.1576053 C9.15198355,16.1576053 8.45898506,15.4646068 8.45898506,14.6173169 L8.45898506,10.0008103 C8.45898506,9.15198355 9.15198355,8.4606336 9.9991897,8.4606336 C10.8465076,8.4606336 11.5394502,9.15360414 11.5394502,10.0008103 L11.5394502,14.6173169 M10.0000279,6.92126719 C9.15120119,6.92126719 8.45973948,6.22829665 8.45973948,5.38109049 C8.45973948,4.53374463 9.15273796,3.84077408 10.0000279,3.84077408 C10.847262,3.84077408 11.5403443,4.53377257 11.5403443,5.38109049 C11.5403443,6.22832459 10.847262,6.92126719 10.0000279,6.92126719" id="关于我们" fill="#29B6F6"></path>
                <rect id="Rectangle-4" fill="#D8D8D8" opacity="0.01" x="0" y="0" width="20" height="20"></rect>
            </g>
        </g>
    </g>
</svg>