<?xml version="1.0" encoding="UTF-8" standalone="no"?>
<svg width="20px" height="20px" viewBox="0 0 20 20" version="1.1" xmlns="http://www.w3.org/2000/svg" xmlns:xlink="http://www.w3.org/1999/xlink">
    <!-- Generator: Sketch 43.1 (39012) - http://www.bohemiancoding.com/sketch -->
    <title> task_password</title>
    <desc>Created with Sketch.</desc>
    <defs></defs>
    <g id="Page-1" stroke="none" stroke-width="1" fill="none" fill-rule="evenodd">
        <g id="1主页-个人中心" transform="translate(-15.000000, -242.000000)">
            <g id="-task_password" transform="translate(15.000000, 242.000000)">
                <path d="M17.2838081,3.28668202 C15.7755902,3.28668202 14.4473164,2.07645715 14.4251801,0.589599233 C14.4205339,0.263838331 14.1502527,0 13.819072,0 L4.82256651,0 C4.4914522,0 4.26268895,0.263838331 4.25807585,0.589599233 C4.23593961,2.07645715 3.03215309,3.28668202 1.52300595,3.28668202 C1.18907068,3.28668202 1,3.55419924 1,3.88357392 L1,12.4296374 C1,17.4870705 8.89520281,19.8929349 9.23461406,19.9930137 C9.29176338,20.0093897 9.43082011,19.9918417 9.48893188,19.9918417 C9.56084976,19.9918417 9.82452654,20.0057433 9.89368983,19.9802841 C10.2313089,19.8546809 18,16.8628311 18,12.4333163 L18,3.88357392 C18.0000332,3.55416668 17.6186394,3.28668202 17.2838081,3.28668202 Z M14.9794294,4.7713417 L14.9794294,9.25421345 L9.23872348,9.25421345 L9.23872348,2.01477158 L12.10264,2.01477158 C12.3358289,3.53842329 13.4814119,4.55164518 14.9794294,4.7713417 Z M2.99821372,11.5651918 L2.99821372,9.76157157 L8.73965762,9.76157157 L8.73965762,16.8866406 C7.38152066,16.3961077 2.99821372,14.5815013 2.99821372,11.5651918 L2.99821372,11.5651918 Z" id="修改密码" fill="#FFB41C"></path>
                <rect id="Rectangle-4" fill="#D8D8D8" opacity="0.01" x="0" y="0" width="20" height="20"></rect>
            </g>
        </g>
    </g>
</svg>