<?xml version="1.0" encoding="UTF-8" standalone="no"?>
<svg width="38px" height="38px" viewBox="0 0 38 38" version="1.1" xmlns="http://www.w3.org/2000/svg" xmlns:xlink="http://www.w3.org/1999/xlink">
    <!-- Generator: Sketch 43.1 (39012) - http://www.bohemiancoding.com/sketch -->
    <title>task_check2</title>
    <desc>Created with Sketch.</desc>
    <defs>
        <linearGradient x1="0%" y1="0%" x2="100%" y2="100%" id="linearGradient-1">
            <stop stop-color="#29B6F6" offset="0%"></stop>
            <stop stop-color="#547BEF" offset="100%"></stop>
        </linearGradient>
    </defs>
    <g id="Page-1" stroke="none" stroke-width="1" fill="none" fill-rule="evenodd">
        <g id="Group-4">
            <path d="M1.98277907,3.00204784 C1.98277907,1.89763049 2.87288866,1.00232332 3.98039721,1.00232332 L29.726847,1.00232332 C30.8301011,1.00232332 31.7244652,1.89701997 31.7244652,3.00204784 L31.7244652,17.0444186 C31.7244652,18.1488359 30.8343556,19.0441431 29.726847,19.0441431 L3.98039721,19.0441431 C2.87714318,19.0441431 1.98277907,18.1494464 1.98277907,17.0444186 L1.98277907,3.00204784 Z M6.836598,8.18552787 L27.2877815,8.18552787 L27.2877815,5.89587277 L6.836598,5.89587277 L6.836598,8.18552787 Z M6.836598,13.7863036 L27.2877815,13.7863036 L27.2877815,11.4966485 L6.836598,11.4966485 L6.836598,13.7863036 Z" id="Combined-Shape" fill="#E5E5E5"></path>
            <path d="M35.1980584,30.0130642 C35.3311282,29.8625537 35.4532334,29.6690617 35.5648725,29.4433211 C35.6765116,29.222972 35.6446147,29.0187473 35.4691819,28.8413796 L35.1502131,28.5081098 C34.9857448,28.3307422 34.8790896,28.2339962 34.8312443,28.2071391 C34.6079661,28.0566285 34.3956525,28.0297715 34.1987889,28.1426418 C33.9969415,28.2501205 33.8000779,28.4113638 33.5982305,28.6102474 C33.0878804,29.1208344 32.5825142,29.6206887 32.0829791,30.1152018 C31.5832447,30.6042729 31.1101242,31.0718786 30.6688508,31.5180187 C30.5146992,31.6738704 30.3392663,31.7706164 30.1532178,31.8028651 C29.9618365,31.8297222 29.8129678,31.776008 29.7013287,31.6147647 L29.3876927,31.2868865 C29.2441567,31.1310347 29.0899552,30.9590082 28.9358036,30.7816406 L28.4892473,30.265662 C28.3403785,30.0990775 28.239405,29.9808156 28.1702785,29.9163183 C28.0373582,29.8034479 27.8885393,29.733559 27.7237221,29.7013104 C27.558905,29.6690617 27.3834721,29.7282179 27.2080393,29.8840696 L27.0432719,30.0345802 C26.9528642,30.1098102 26.8625063,30.1958235 26.7721485,30.3033022 C26.6870735,30.4000482 26.5967156,30.4914026 26.5063079,30.5666831 L26.3415406,30.7171433 C26.0119062,31.0772701 26.0544686,31.48577 26.4797438,31.9533756 C26.6126641,32.1092274 26.7880969,32.3027193 27.0113751,32.5391927 C27.2293205,32.770325 27.4632143,33.0229227 27.7077737,33.2863036 C27.957616,33.5550256 28.2021753,33.813015 28.4467347,34.0710043 C28.6912442,34.3289936 28.898574,34.5332687 29.0793396,34.6891204 C29.2547724,34.8718797 29.4993318,34.9525013 29.8129678,34.9417182 C30.1266039,34.9309854 30.3605475,34.839631 30.5093664,34.6622633 C30.8230523,34.3720254 31.1792009,34.0226313 31.5779119,33.6087902 C31.9766229,33.2002903 32.3966152,32.7810577 32.827223,32.3564839 C33.2633132,31.9372513 33.6829565,31.5180187 34.097616,31.1041272 C34.4913431,30.6848946 34.8686234,30.3194266 35.1980584,30.0130642 Z M30.6688508,23.2999507 C31.6683197,23.2999507 32.6094272,23.4934427 33.4970575,23.8804266 C34.3901702,24.2728022 35.1661615,24.8049051 35.835996,25.4660027 C36.5008466,26.1324919 37.032129,26.9171926 37.4148916,27.8040308 C37.8031364,28.6962606 38,29.6422046 38,30.6473048 C38,31.6738704 37.8031364,32.6305976 37.4148916,33.5174358 C37.0271451,34.4096152 36.4953643,35.1889747 35.835996,35.8608051 C35.1661615,36.5272942 34.3901702,37.0486644 33.4970575,37.4302568 C32.6094272,37.8118492 31.6683197,38 30.6688508,38 C29.6428677,38 28.6859613,37.8118492 27.7981316,37.4302568 C26.9103517,37.0486644 26.1288781,36.5272942 25.4643764,35.8608051 C24.7945419,35.1889747 24.2682433,34.4096152 23.880148,33.5174358 C23.4867697,32.6305976 23.2953885,31.6738704 23.2953885,30.6473048 C23.2953885,29.6475962 23.4920527,28.7016018 23.880148,27.8040308 C24.2682433,26.9171926 24.7945419,26.1324919 25.4643764,25.4660027 C26.1288781,24.7995135 26.9103517,24.2674106 27.7981316,23.8804266 C28.6859613,23.4881015 29.6428677,23.2999507 30.6688508,23.2999507 Z M2.28595973,35.4846043 L23.2262619,35.4846043 C22.3331493,34.0925202 21.8174664,32.431714 21.8174664,30.6473048 C21.8174664,25.7186005 25.7726796,21.7197662 30.6476195,21.7197662 C31.8809323,21.7197662 33.0559835,21.9777555 34.124529,22.4400199 L34.124529,16.0974746 L31.8384197,17.0974746 L2.28595973,17.092083 L0,16.092083 L0,33.3615337 C0,34.5332687 1.05259706,35.4846043 2.28595973,35.4846043 Z" id="审批-(1)" fill="url(#linearGradient-1)"></path>
            <rect id="Rectangle-10" fill="#FFFFFF" opacity="0.1" x="0" y="0" width="38" height="38"></rect>
        </g>
    </g>
</svg>