<?xml version="1.0" encoding="UTF-8" standalone="no"?>
<svg width="14px" height="16px" viewBox="0 0 14 16" version="1.1" xmlns="http://www.w3.org/2000/svg" xmlns:xlink="http://www.w3.org/1999/xlink">
    <!-- Generator: Sketch 43.1 (39012) - http://www.bohemiancoding.com/sketch -->
    <title>warn_borrower</title>
    <desc>Created with Sketch.</desc>
    <defs></defs>
    <g id="Page-1" stroke="none" stroke-width="1" fill="none" fill-rule="evenodd">
        <g id="4预警-五日内应收利息" transform="translate(-15.000000, -92.000000)" fill="#29B6F6">
            <g id="warn_borrower" transform="translate(15.000000, 92.000000)">
                <path d="M12.5342797,4.60813241 C12.5342797,5.84116966 12.0286862,6.99976828 11.1106732,7.87054345 C10.220478,8.71490207 9.04557073,9.18989241 7.79235447,9.21478621 C7.75868618,9.22089931 7.72403902,9.22425379 7.68854959,9.22425379 C5.93326829,9.22425379 4.28363577,9.872 3.0436,11.0481655 C1.80681951,12.2211972 0.613154472,12.5928166 0.613154472,12.5928166 C1.0008065,11.7235421 1.55543415,10.9431393 2.26162602,10.2733241 C2.96697561,9.60430345 3.78824065,9.07910621 4.70261138,8.71227586 C4.85515447,8.65105655 5.00929106,8.59480276 5.16474797,8.54336 C4.84233821,8.35561931 4.54078049,8.13075862 4.26642602,7.87052138 C3.34839024,6.99976828 2.84279675,5.84114759 2.84279675,4.60813241 C2.84279675,3.37509517 3.34839024,2.21647448 4.26642602,1.34572138 C5.18116098,0.478102069 6.3964748,0.000286896552 7.68850407,0.000286896552 C8.9805561,0.000286896552 10.1958927,0.478102069 11.1106276,1.34572138 C12.0286862,2.21647448 12.5342797,3.3750731 12.5342797,4.60813241 Z M13.717159,14.3358737 C13.8667369,14.3358737 13.9879805,14.4534304 13.9879805,14.5984398 C13.9879805,14.7434493 13.8667369,14.8609899 13.717159,14.8609899 L12.8769227,14.8609899 L12.8769227,15.5360706 C12.8769227,15.6810801 12.7556625,15.7986207 12.6061012,15.7986207 C12.4565233,15.7986207 12.3352797,15.6810801 12.3352797,15.5360706 L12.3352797,14.8609899 L11.4950434,14.8609899 C11.3454655,14.8609899 11.2242219,14.7434493 11.2242219,14.5984398 C11.2242219,14.4534304 11.3454655,14.3358898 11.4950434,14.3358898 L12.3352797,14.3358898 L12.3352797,13.9173779 L11.4950434,13.9173779 C11.3454655,13.9173779 11.2242219,13.7998373 11.2242219,13.6548278 C11.2242219,13.5098183 11.3454655,13.3922777 11.4950434,13.3922777 L12.3352797,13.3922777 L12.3352797,13.1456189 L11.6335721,12.4455228 C11.5293323,12.3415482 11.5317969,12.1753237 11.6390636,12.0742677 C11.7463137,11.9732116 11.9177585,11.9755689 12.0220147,12.0796075 L12.6101371,12.6663483 L13.1982761,12.0796075 C13.3024827,11.9756009 13.4739606,11.9732277 13.5812272,12.0742677 C13.6884939,12.1753237 13.6909419,12.3415482 13.5867188,12.4455228 L12.8769227,13.1536848 L12.8769227,13.3922617 L13.717159,13.3922617 C13.8667369,13.3922617 13.9879805,13.5098023 13.9879805,13.6548118 C13.9879805,13.7998213 13.8667369,13.9173619 13.717159,13.9173619 L12.8769227,13.9173619 L12.8769227,14.3358737 L13.717159,14.3358737 Z" id="Combined-Shape"></path>
                <path d="M10.4013466,15.5 L0,15.5 C0,11.3578644 3.35786438,8 7.5,8 C9.97510919,8 12.1701872,9.198956 13.5361358,11.0477698 C13.3621757,11.0163856 13.1830014,11 13,11 C11.3431458,11 10,12.3431458 10,14 C10,14.5464307 10.1460914,15.0587399 10.4013466,15.5 Z" id="Combined-Shape"></path>
            </g>
        </g>
    </g>
</svg>