<?xml version="1.0" encoding="UTF-8" standalone="no"?>
<svg width="36px" height="36px" viewBox="0 0 36 36" version="1.1" xmlns="http://www.w3.org/2000/svg" xmlns:xlink="http://www.w3.org/1999/xlink">
    <!-- Generator: Sketch 43.1 (39012) - http://www.bohemiancoding.com/sketch -->
    <title>warn_a</title>
    <desc>Created with Sketch.</desc>
    <defs>
        <linearGradient x1="50%" y1="100%" x2="50%" y2="0%" id="linearGradient-1">
            <stop stop-color="#FFEE87" offset="0%"></stop>
            <stop stop-color="#FAE264" offset="100%"></stop>
        </linearGradient>
        <linearGradient x1="50%" y1="120.40951%" x2="50%" y2="0%" id="linearGradient-2">
            <stop stop-color="#FFB41C" stop-opacity="0.2" offset="0%"></stop>
            <stop stop-color="#FFB41C" offset="100%"></stop>
        </linearGradient>
    </defs>
    <g id="Page-1" stroke="none" stroke-width="1" fill="none" fill-rule="evenodd">
        <g id="4预警" transform="translate(-14.000000, -266.000000)">
            <g id="warn_a" transform="translate(14.000000, 266.000000)">
                <g id="Group" transform="translate(1.000000, 1.000000)">
                    <path d="M17,34 C26.3888407,34 34,26.3888407 34,17 L34,0.854112141 C31.6821472,4.04663085 34,0.634190911 30.0869207,6.14883929 C26.9686405,2.39225582 22.2636909,2.48689958e-14 17,2.48689958e-14 C7.61115925,2.48689958e-14 0,7.61115925 0,17 C0,19.8617241 1.00660221e-14,17.8949497 1.15307069e-14,32.6240794 C3.83038507,29.4217221 1.37351105,31.5727796 4.63268693,28.6640948 C7.73235866,31.949448 12.1267133,34 17,34 Z" id="Oval-6" fill="url(#linearGradient-1)"></path>
                    <g id="已逾期" transform="translate(5.368421, 5.368421)">
                        <path d="M0.0194399648,11.623803 C0.0194399648,18.0355894 5.21720056,23.2333499 11.628987,23.2333499 C18.0407733,23.2333499 23.2385339,18.0355894 23.2385339,11.623803 C23.2385339,5.21201657 18.0407733,0.0142559742 11.628987,0.0142559742 C5.21720056,0.0142559742 0.0194399648,5.21201657 0.0194399648,11.623803 L0.0194399648,11.623803 Z" id="Fill-1" fill="url(#linearGradient-2)"></path>
                        <path d="M11.7300748,15.6154757 C10.9262074,15.6154757 10.2300748,16.3116083 10.2300748,17.1154757 C10.2300748,17.9193431 10.9262074,18.6154757 11.7300748,18.6154757 C12.5339422,18.6154757 13.2300748,17.9193431 13.2300748,17.1154757 C13.2300748,16.3116083 12.5339422,15.6154757 11.7300748,15.6154757 Z M11.6315789,5.75552558 C10.7990789,5.75552558 10.1315789,6.29466061 10.1315789,6.9633954 L10.6978289,13.2049201 C10.6978289,13.8736549 10.8028289,14.4127899 11.6315789,14.4127899 C12.4640789,14.4127899 12.5653289,13.8736549 12.5653289,13.2049201 L13.1315789,6.9608034 C13.1315789,6.29466061 12.4640789,5.75552558 11.6315789,5.75552558 L11.6315789,5.75552558 Z" id="Fill-2" fill="#FFFFFF"></path>
                    </g>
                </g>
                <rect id="Rectangle-2" fill="#FFFFFF" opacity="0.01" x="0" y="0" width="36" height="36"></rect>
            </g>
        </g>
    </g>
</svg>