<?xml version="1.0" encoding="UTF-8" standalone="no"?>
<svg width="36px" height="36px" viewBox="0 0 36 36" version="1.1" xmlns="http://www.w3.org/2000/svg" xmlns:xlink="http://www.w3.org/1999/xlink">
    <!-- Generator: Sketch 43.1 (39012) - http://www.bohemiancoding.com/sketch -->
    <title>warn_c</title>
    <desc>Created with Sketch.</desc>
    <defs>
        <linearGradient x1="0%" y1="50%" x2="89.9758107%" y2="82.4864079%" id="linearGradient-1">
            <stop stop-color="#23B4F5" offset="0%"></stop>
            <stop stop-color="#1094F9" offset="100%"></stop>
        </linearGradient>
    </defs>
    <g id="Page-1" stroke="none" stroke-width="1" fill="none" fill-rule="evenodd">
        <g id="4预警" transform="translate(-14.000000, -96.000000)">
            <g id="warn_c" transform="translate(14.000000, 96.000000)">
                <g id="Group-2" transform="translate(0.000000, 2.000000)">
                    <path d="M26.6737071,13.2049504 L26.6737071,3.92582602 C26.6737071,3.14063398 26.0068895,2.61723225 25.3400263,2.61723225 L21.3389839,2.61723225 L21.3389839,3.92582602 C21.3389839,5.36529257 20.1386393,6.54301354 18.6716223,6.54301354 L8.00208478,6.54301354 C6.53506781,6.54301354 5.33472319,5.36529257 5.33472319,3.92582602 L5.33472319,2.61723225 L1.3336808,2.61723225 C0.666817606,2.61723225 -5.32907052e-15,3.14063398 -5.32907052e-15,3.92582602 L-5.32907052e-15,30.0978354 C-5.32907052e-15,30.8829828 0.666817606,31.4064292 1.3336808,31.4064292 L19.3788514,31.4064292 C17.5129599,29.4742033 16.3636364,26.8349396 16.3636364,23.925 C16.3636364,18.1118118 20.9503658,13.3788391 26.6737071,13.2049504 Z M8.00208478,12.6024051 C8.00208478,13.0973995 8.26884829,13.4274333 8.66894797,13.4274333 L18.0047591,13.4274333 C18.4048588,13.4274333 18.6716223,13.0973995 18.6716223,12.6024051 C18.6716223,12.1074108 18.4048588,11.7774333 18.0047591,11.7774333 L8.66894797,11.7774333 C8.26884829,11.7774333 8.00208478,12.1074108 8.00208478,12.6024051 Z M5.33472319,17.8368366 C5.33472319,18.3318309 5.54474352,18.6618084 5.85973813,18.6618084 L17.4097079,18.6618084 C17.7247025,18.6618084 17.9347229,18.3318309 17.9347229,17.8368366 C17.9347229,17.3418422 17.7247025,17.0118084 17.4097079,17.0118084 L5.85973813,17.0118084 C5.54474352,17.0118084 5.33472319,17.3418422 5.33472319,17.8368366 Z M5.33472319,23.0711999 C5.33472319,23.5661943 5.51746815,23.8962281 5.79155437,23.8962281 L15.8415281,23.8962281 C16.1156143,23.8962281 16.2983592,23.5661943 16.2983592,23.0711999 C16.2983592,22.5762056 16.1156143,22.2462281 15.8415281,22.2462281 L5.79155437,22.2462281 C5.51746815,22.2462281 5.33472319,22.5762056 5.33472319,23.0711999 Z" id="Combined-Shape" fill="#E5E5E5"></path>
                    <path d="M6.66840398,1.30859376 C6.66840398,0.523446451 7.33526717,0 8.00208478,0 L18.6716223,0 C19.3384399,0 20.0053031,0.523446451 20.0053031,1.30859376 L20.0053031,3.92582602 C20.0053031,4.71097333 19.3384399,5.23441978 18.6716223,5.23441978 L8.00208478,5.23441978 C7.33526717,5.23441978 6.66840398,4.71097333 6.66840398,3.92582602 L6.66840398,1.30859376 L6.66840398,1.30859376 Z" id="Path" fill="url(#linearGradient-1)"></path>
                    <path d="M26.1818182,23.211391 L26.1818182,24.861391 L23.7386332,24.861391 C23.2819072,24.861391 22.9090909,25.2307561 22.9090909,25.686391 C22.9090909,26.1452025 23.2804896,26.511391 23.7386332,26.511391 L26.1818182,26.511391 L26.1818182,28.1771014 C26.1818182,28.612636 26.5481307,28.986391 27,28.986391 C27.4550197,28.986391 27.8181818,28.6240597 27.8181818,28.1771014 L27.8181818,26.511391 L30.2613668,26.511391 C30.7180928,26.511391 31.0909091,26.1420259 31.0909091,25.686391 C31.0909091,25.2275795 30.7195104,24.861391 30.2613668,24.861391 L27.8181818,24.861391 L27.8181818,23.211391 L30.2613668,23.211391 C30.7180928,23.211391 31.0909091,22.8420259 31.0909091,22.386391 C31.0909091,21.9275795 30.7195104,21.561391 30.2613668,21.561391 L28.8356541,21.561391 L29.8590807,19.7887642 C30.0835312,19.4000045 29.9493284,18.8998256 29.5579981,18.673891 C29.1639394,18.4463811 28.6669952,18.5807896 28.4419482,18.9705824 L27.1944154,21.1313725 C27.1424455,21.2213871 27.1097038,21.317375 27.0949299,21.414549 C27.080156,21.317375 27.0474142,21.2213871 26.9954443,21.1313725 L25.7479116,18.9705824 C25.5228646,18.5807896 25.0259203,18.4463811 24.6318617,18.673891 C24.2405314,18.8998256 24.1063286,19.4000045 24.3307791,19.7887642 L25.3542056,21.561391 L23.7386332,21.561391 C23.2819072,21.561391 22.9090909,21.9307561 22.9090909,22.386391 C22.9090909,22.8452025 23.2804896,23.211391 23.7386332,23.211391 L26.1818182,23.211391 Z M27,33 C22.0294373,33 18,28.9369841 18,23.925 C18,18.9130159 22.0294373,14.85 27,14.85 C31.9705627,14.85 36,18.9130159 36,23.925 C36,28.9369841 31.9705627,33 27,33 Z" id="Combined-Shape" fill="url(#linearGradient-1)"></path>
                </g>
                <rect id="Rectangle-2" fill="#FFFFFF" opacity="0.01" x="0" y="0" width="36" height="36"></rect>
            </g>
        </g>
    </g>
</svg>