<?xml version="1.0" encoding="UTF-8" standalone="no"?>
<svg width="36px" height="36px" viewBox="0 0 36 36" version="1.1" xmlns="http://www.w3.org/2000/svg" xmlns:xlink="http://www.w3.org/1999/xlink">
    <!-- Generator: Sketch 43.1 (39012) - http://www.bohemiancoding.com/sketch -->
    <title>warn_b</title>
    <desc>Created with Sketch.</desc>
    <defs>
        <linearGradient x1="50%" y1="0%" x2="50%" y2="137.251124%" id="linearGradient-1">
            <stop stop-color="#FF2244" offset="0%"></stop>
            <stop stop-color="#FF2244" stop-opacity="0.5" offset="100%"></stop>
        </linearGradient>
    </defs>
    <g id="Page-1" stroke="none" stroke-width="1" fill="none" fill-rule="evenodd">
        <g id="4预警" transform="translate(-13.000000, -183.000000)">
            <g id="warn_b" transform="translate(13.000000, 183.000000)">
                <g id="Group-3" transform="translate(1.000000, 0.000000)">
                    <path d="M13.8412204,19.4635417 C13.8142593,19.5767507 13.7999992,19.6949459 13.7999992,19.8165096 L13.7999992,21.625 L11.4634159,21.625 C10.6605636,21.625 10,22.279084 10,23.0859375 C10,23.8984162 10.6551936,24.546875 11.4634159,24.546875 L13.7999992,24.546875 L13.7999992,28.4959904 C13.7999992,29.3381423 14.4715721,30 15.2999992,30 C16.134202,30 16.7999992,29.326632 16.7999992,28.4959904 L16.7999992,24.546875 L19.9086348,24.546875 C20.7114871,24.546875 21.3720507,23.892791 21.3720507,23.0859375 C21.3720507,22.2734588 20.7168571,21.625 19.9086348,21.625 L16.7999992,21.625 L16.7999992,19.8165096 C16.7999992,19.6945876 16.7859233,19.5764446 16.7593334,19.4635417 L19.9086348,19.4635417 C20.7114871,19.4635417 21.3720507,18.8094577 21.3720507,18.0026042 C21.3720507,17.1901254 20.7168571,16.5416667 19.9086348,16.5416667 L18.0056097,16.5416667 L20.1928247,12.7532991 C20.512463,12.1996693 20.3225717,11.5102826 19.7786549,11.196252 C19.230946,10.8800322 18.5383049,11.0701912 18.2231277,11.616094 L15.7121414,15.9652499 C15.6062365,16.1486826 15.5562666,16.3470183 15.5565757,16.5416667 L15.1786384,16.5416667 C15.1789475,16.3470183 15.1289776,16.1486826 15.0230728,15.9652499 L12.5120864,11.616094 C12.1969093,11.0701912 11.5042681,10.8800322 10.9565592,11.196252 C10.4126424,11.5102826 10.2227511,12.1996693 10.5423895,12.7532991 L12.7296045,16.5416667 L11.4634159,16.5416667 C10.6605636,16.5416667 10,17.1957507 10,18.0026042 C10,18.8150829 10.6551936,19.4635417 11.4634159,19.4635417 L13.8412204,19.4635417 Z M26.4882396,11.1833423 C28.9629215,13.7499866 30.4294042,16.5916846 30.521077,19.8 C30.521077,28.7833154 23.6469471,33 15.3980074,33 L15.0313968,33 C6.78245707,33 0,28.7833154 0,19.8 C0,16.5916846 1.46648265,13.7499866 3.94116456,11.1833423 C4.76605853,10.3583423 5.68258502,9.53334229 6.59915177,8.89167114 C6.78245707,8.79998657 6.87408958,8.70834229 6.96576237,8.52501343 C5.59095251,7.88334229 4.76605853,6.69168457 4.76605853,5.31665771 C4.76605853,3.20831543 6.87408958,1.55831543 9.3487715,1.55831543 C9.89872766,1.55831543 10.4486436,1.65 10.9069269,1.83332886 C11.181905,1.92501343 11.3652103,2.01665771 11.4568428,2.10834229 C11.5485156,2.10834229 11.7318209,2.10834229 11.8234534,2.01665771 C12.006799,1.74168457 12.3734096,1.46667114 12.7400202,1.10001343 C13.4732414,0.458342285 14.2981353,0.0916845703 15.2147021,0 C16.1312688,0.0916845703 16.9561628,0.458342285 17.5977112,1.19165771 C18.0559946,1.46667114 18.3309727,1.83332886 18.514278,2.10834229 C18.6059508,2.19998657 18.7892561,2.19998657 18.8808886,2.19998657 C19.0641939,2.10834229 19.1558666,2.01665771 19.4308447,1.92501343 C19.8890878,1.74168457 20.439044,1.65 20.9889599,1.65 C23.4636418,1.65 25.5717131,3.20831543 25.5717131,5.40834229 C25.5717131,6.78332886 24.6551464,7.97498657 23.371969,8.61665771 C23.5553146,8.70834229 23.6469471,8.79998657 23.8302524,8.89167114 C24.7468192,9.53334229 25.6633456,10.2666577 26.4882396,11.1833423 Z" id="Combined-Shape" fill="url(#linearGradient-1)"></path>
                    <g id="金币" transform="translate(15.000000, 25.000000)">
                        <path d="M0.673170385,8.43433684 L10.3139554,8.43433684 C10.5736734,8.43433684 10.784215,8.64518947 10.784215,8.90529123 L10.784215,10.3183088 C10.7841765,10.5784105 10.5736734,10.7892246 10.3139554,10.7892632 L0.673170385,10.7892632 C0.413490872,10.7892246 0.20298783,10.5784105 0.202910751,10.3183088 L0.202910751,8.90529123 C0.202910751,8.78039298 0.252434077,8.66058947 0.340651116,8.57224211 C0.428829615,8.48393333 0.548456389,8.43433684 0.673170385,8.43433684" id="Fill-1" fill="#FFD200"></path>
                        <path d="M10.3139554,10.9657649 L0.673170385,10.9657649 C0.316602434,10.9657649 0.026515213,10.6752105 0.026515213,10.3181544 L0.026515213,8.90529123 C0.026515213,8.54815789 0.316602434,8.2576807 0.673170385,8.2576807 L10.3139554,8.2576807 C10.6706389,8.2576807 10.9606491,8.54823509 10.9606491,8.90529123 L10.9606491,10.3181544 C10.960572,10.6752877 10.6704848,10.9657649 10.3139554,10.9657649 Z M0.673170385,8.61091579 C0.510918864,8.61110877 0.379383367,8.7428 0.379190669,8.90529123 L0.379190669,10.3183088 C0.379383367,10.4808 0.510918864,10.6124912 0.673170385,10.612607 L10.3139554,10.612607 C10.4762454,10.6124912 10.6077809,10.4808 10.6079736,10.3183088 L10.6079736,8.90529123 C10.6077809,8.7428 10.4762454,8.61110877 10.3139554,8.61091579 L0.673170385,8.61091579 L0.673170385,8.61091579 Z" id="Fill-2" fill="#D6B000"></path>
                        <polygon id="Fill-3" fill="#FFF000" points="3.11060446 10.6125298 4.83686815 10.6125298 4.83686815 8.61091579 3.11060446 8.61091579"></polygon>
                        <polygon id="Fill-4" fill="#FFF644" points="1.5235071 10.6125298 2.42675862 10.6125298 2.42675862 8.61091579 1.5235071 8.61091579"></polygon>
                        <path d="M2.14276065,5.72617544 L11.7835456,5.72617544 C12.0432637,5.72625263 12.2537667,5.93710526 12.2538053,6.19720702 L12.2538053,7.61022456 C12.2538053,7.87032632 12.0432637,8.08117895 11.7835456,8.08117895 L2.14276065,8.08117895 C1.8830426,8.08117895 1.67250101,7.87032632 1.67250101,7.61022456 L1.67250101,6.19720702 C1.67253955,5.93710526 1.8830426,5.72625263 2.14276065,5.72617544" id="Fill-5" fill="#FFD200"></path>
                        <path d="M11.7835456,8.25783509 L2.14276065,8.25783509 C1.78623124,8.25783509 1.49618256,7.96720351 1.49618256,7.61022456 L1.49618256,6.19728421 C1.49618256,5.84015088 1.78630832,5.54963509 2.14276065,5.54963509 L11.7835456,5.54963509 C12.1402292,5.54963509 12.4302008,5.84022807 12.4302008,6.19728421 L12.4302008,7.61022456 C12.4302008,7.96720351 12.1401521,8.25783509 11.7835456,8.25783509 Z M2.14276065,5.90290877 C1.98050913,5.90302456 1.84901217,6.03471579 1.84881947,6.19720702 L1.84881947,7.61022456 C1.84905071,7.77271579 1.98050913,7.90436842 2.14276065,7.9046 L11.7835456,7.9046 C11.9458357,7.90444561 12.0773712,7.77275439 12.0775639,7.61022456 L12.0775639,6.19720702 C12.0773712,6.03467719 11.9458357,5.90298596 11.7835456,5.90290877 L2.14276065,5.90290877 L2.14276065,5.90290877 Z" id="Fill-6" fill="#D6B000"></path>
                        <polygon id="Fill-7" fill="#FFF000" points="4.58023327 7.90448421 6.30641988 7.90448421 6.30641988 5.90290877 4.58023327 5.90290877"></polygon>
                        <polygon id="Fill-8" fill="#FFF644" points="2.99305882 7.90448421 3.89634888 7.90448421 3.89634888 5.90290877 2.99305882 5.90290877"></polygon>
                        <path d="M0.673170385,3.01812982 L10.3139554,3.01812982 C10.4387079,3.01812982 10.5583347,3.06776491 10.6465132,3.15611228 C10.7347302,3.24445965 10.7842535,3.36426316 10.784215,3.4891614 L10.784215,4.90210175 C10.784215,5.16220351 10.5736734,5.37305614 10.3139554,5.37305614 L0.673170385,5.37305614 C0.413452333,5.37305614 0.202910751,5.16220351 0.202910751,4.90210175 L0.202910751,3.4891614 C0.202872211,3.36426316 0.252434077,3.24442105 0.340612576,3.15607368 C0.428829615,3.06772632 0.548456389,3.01812982 0.673170385,3.01812982" id="Fill-9" fill="#FFD200"></path>
                        <path d="M10.3139554,5.54955789 L0.673170385,5.54955789 C0.316602434,5.54955789 0.026515213,5.2590807 0.026515213,4.90202456 L0.026515213,3.48908421 C0.026515213,3.13202807 0.316602434,2.84155088 0.673170385,2.84155088 L10.3139554,2.84155088 C10.6706389,2.84155088 10.9606491,3.13202807 10.9606491,3.48908421 L10.9606491,4.90202456 C10.960572,5.2590807 10.6704848,5.54955789 10.3139554,5.54955789 Z M0.673170385,3.19482456 C0.510880325,3.19494035 0.379344828,3.32663158 0.379190669,3.4891614 L0.379190669,4.90210175 C0.379383367,5.06463158 0.510918864,5.19628421 0.673170385,5.1964 L10.3139554,5.1964 C10.4762454,5.19628421 10.6077809,5.06463158 10.6079736,4.90210175 L10.6079736,3.4891614 C10.6078195,3.32663158 10.4762454,3.19494035 10.3139554,3.19482456 L0.673170385,3.19482456 L0.673170385,3.19482456 Z" id="Fill-10" fill="#D6B000"></path>
                        <polygon id="Fill-11" fill="#FFF000" points="3.11060446 5.1964 4.83686815 5.1964 4.83686815 3.19482456 3.11060446 3.19482456"></polygon>
                        <polygon id="Fill-12" fill="#FFF644" points="1.5235071 5.1964 2.42675862 5.1964 2.42675862 3.19482456 1.5235071 3.19482456"></polygon>
                        <path d="M13.5024483,0.197807018 C16.4244787,0.197807018 18.7931582,2.56994737 18.7931582,5.49621754 C18.7931582,8.42256491 16.4244016,10.7946281 13.5024483,10.7946281 C10.5804949,10.7946281 8.21185396,8.42248772 8.21185396,5.49621754 C8.21185396,2.56994737 10.5804949,0.197807018 13.5024483,0.197807018" id="Fill-13" fill="#FFD200"></path>
                        <path d="M13.5024483,10.9712456 C10.488,10.9712456 8.03545842,8.51519649 8.03545842,5.49614035 C8.03545842,2.4772386 10.4879229,0.0210350877 13.5024483,0.0210350877 C16.5170122,0.0210350877 18.9694767,2.4771614 18.9694767,5.49614035 C18.9694767,8.5151193 16.5170892,10.9712456 13.5024483,10.9712456 Z M13.5024483,0.374308772 C10.6823935,0.374308772 8.38817241,2.67207368 8.38817241,5.49621754 C8.38817241,8.3204386 10.6825091,10.6181263 13.5024483,10.6181263 C16.322503,10.6181263 18.6168398,8.32051579 18.6168398,5.49621754 C18.6168398,2.67207368 16.3226187,0.374308772 13.5024483,0.374308772 L13.5024483,0.374308772 Z" id="Fill-14" fill="#D6B000"></path>
                        <path d="M13.5024483,1.37519298 C15.7751643,1.37519298 17.617432,3.22025965 17.617432,5.49621754 C17.617432,7.77225263 15.7751643,9.6172807 13.5024483,9.6172807 C11.2297708,9.6172807 9.38750304,7.77225263 9.38750304,5.49621754 C9.38758012,3.22025965 11.2298479,1.37519298 13.5024483,1.37519298" id="Fill-15" fill="#FFF43C"></path>
                        <path d="M13.5024483,9.79385965 C11.1362353,9.79385965 9.21118458,7.86592632 9.21118458,5.49614035 C9.21118458,3.12643158 11.1362353,1.19849825 13.5024483,1.19849825 C15.8686613,1.19849825 17.7938276,3.12643158 17.7938276,5.49614035 C17.7938276,7.86592632 15.8687769,9.79385965 13.5024483,9.79385965 Z M13.5024483,1.55177193 C11.3306673,1.55177193 9.56397566,3.32126667 9.56397566,5.49614035 C9.56397566,7.67116842 11.3307444,9.44050877 13.5024483,9.44050877 C15.6743448,9.44050877 17.4411136,7.67109123 17.4411136,5.49614035 C17.4411907,3.32126667 15.6743448,1.55177193 13.5024483,1.55177193 L13.5024483,1.55177193 Z" id="Fill-16" fill="#D6B000"></path>
                        <path d="M15.1191826,5.57549474 L13.9729006,5.57549474 L13.9729006,5.86994737 L14.8841298,5.86994737 C15.0010588,5.86990877 15.1132475,5.91641754 15.1959148,5.99924561 C15.2786207,6.08203509 15.3250609,6.19438947 15.3250223,6.31149123 L15.3250223,6.37038947 C15.3250223,6.61424211 15.1276998,6.81185614 14.8841298,6.81185614 L13.9729006,6.81185614 L13.9729006,7.48895439 C13.9729006,7.73280702 13.7755781,7.93049825 13.5319696,7.93049825 L13.4732738,7.93049825 C13.3563063,7.93053684 13.2441562,7.88402807 13.1614503,7.8012 C13.0787444,7.71841053 13.0323043,7.60609474 13.0323043,7.48895439 L13.0323043,6.81185614 L12.1210365,6.81185614 C12.0041075,6.81189474 11.8919959,6.76538596 11.8092901,6.68259649 C11.7266227,6.59976842 11.680144,6.48749123 11.680144,6.37038947 L11.680144,6.31149123 C11.680144,6.19438947 11.7265842,6.08207368 11.8092515,5.99924561 C11.8919574,5.91645614 12.0041075,5.86990877 12.1210365,5.86994737 L13.0323043,5.86994737 L13.0323043,5.57549474 L11.8859838,5.57549474 C11.7690548,5.57553333 11.6569047,5.52902456 11.5741988,5.44619649 C11.4915314,5.36340702 11.4450913,5.25105263 11.4450913,5.13395088 L11.4450913,5.07505263 C11.4450913,4.8312 11.6424138,4.63350877 11.8859838,4.63350877 L12.9436633,4.63350877 C12.9424686,4.62837544 12.9407343,4.62347368 12.9398479,4.61834035 L12.1801562,3.85752632 C12.0974503,3.77473684 12.0510101,3.66242105 12.0510101,3.5452807 C12.0510101,3.42817895 12.0974503,3.31586316 12.1801562,3.23307368 L12.2217789,3.19150526 C12.3044462,3.1086386 12.4165963,3.06212982 12.5335254,3.06212982 C12.6504929,3.06212982 12.762643,3.1086386 12.8453103,3.19150526 L13.4731197,3.8202807 L14.1009675,3.19138947 C14.2732008,3.01897895 14.5523813,3.01897895 14.7246146,3.19138947 L14.7661217,3.23307368 C14.9382779,3.40548421 14.9382779,3.685 14.7661217,3.85744912 L14.0065071,4.61826316 C14.0054665,4.62339649 14.0037323,4.62837544 14.0027302,4.63343158 L15.1191826,4.63343158 C15.2361116,4.63343158 15.3482617,4.67994035 15.4309675,4.76272982 C15.5136349,4.84555789 15.5600751,4.95787368 15.5600751,5.07497544 L15.5600751,5.13387368 C15.5600751,5.37776491 15.3626755,5.57545614 15.1191826,5.57549474" id="Fill-17" fill="#FFD200"></path>
                        <path d="M13.5318925,8.10692281 L13.4731968,8.10692281 C13.1327769,8.10692281 12.8559473,7.82964561 12.8559473,7.48887719 L12.8559473,6.98843509 L12.1209594,6.98843509 C11.7806166,6.98843509 11.5038256,6.7110807 11.5038256,6.37031228 L11.5038256,6.31141404 C11.5039797,6.07149825 11.642645,5.85331228 11.8595456,5.75153333 C11.5313813,5.7376386 11.2686957,5.46595789 11.2686957,5.13395088 L11.2686957,5.07505263 C11.2686957,4.73412982 11.545641,4.45685263 11.8859067,4.45685263 L12.5292089,4.45685263 L12.055288,3.98234737 C11.81457,3.74131228 11.81457,3.34917193 12.055288,3.10809825 L12.0968337,3.06652982 C12.2123367,2.9502 12.369501,2.88497193 12.5332941,2.88543509 C12.6980892,2.88543509 12.8531339,2.94969825 12.9697931,3.06645263 L13.4729655,3.57044561 L13.9760994,3.06645263 C14.0916795,2.9501614 14.2488824,2.88501053 14.4126755,2.88543509 C14.5776247,2.88543509 14.7325923,2.94969825 14.8492515,3.06645263 L14.8906815,3.10809825 C15.0068012,3.22373333 15.0718945,3.38112982 15.0715091,3.54512632 C15.0718945,3.7091614 15.0068012,3.8665193 14.8906815,3.98219298 L14.4166836,4.45669825 L15.1188357,4.45669825 C15.4591785,4.45669825 15.7360852,4.73405263 15.7360852,5.07489825 L15.7360852,5.13379649 C15.7360852,5.46580351 15.4733996,5.73748421 15.1452353,5.75130175 C15.3621744,5.85315789 15.5007627,6.07138246 15.5009554,6.31133684 L15.5009554,6.37015789 C15.5009554,6.71092632 15.2241258,6.9882807 14.883783,6.9882807 L14.1489878,6.9882807 L14.1489878,7.48872281 C14.1492191,7.82964561 13.8723124,8.10692281 13.5318925,8.10692281 Z M12.1209594,6.04644912 C11.9749331,6.04664211 11.8566166,6.16517193 11.8564625,6.31141404 L11.8564625,6.37031228 C11.8566937,6.51651579 11.9749716,6.63496842 12.1209594,6.6352 L13.2084686,6.6352 L13.2084686,7.48895439 C13.2086613,7.63519649 13.3270162,7.75368772 13.4730426,7.7539193 L13.5318154,7.7539193 C13.6778418,7.75368772 13.7961968,7.63519649 13.7963895,7.48895439 L13.7963895,6.6352 L14.8838986,6.6352 C15.0298864,6.63496842 15.1482028,6.51651579 15.1484341,6.37031228 L15.1484341,6.31141404 C15.1482799,6.16517193 15.0299249,6.04664211 14.8838986,6.04644912 L13.7963895,6.04644912 L13.7963895,5.39891579 L15.1191055,5.39891579 C15.2651318,5.39872281 15.3834868,5.28023158 15.3836795,5.13395088 L15.3836795,5.07505263 C15.3834868,4.92881053 15.2651318,4.8102807 15.1191055,4.81008772 L13.7870243,4.81008772 L13.8299574,4.59842456 C13.8310365,4.59329123 13.8320771,4.58800351 13.8336572,4.58290877 L13.8419432,4.53327368 L14.6416389,3.73255088 C14.6913935,3.68295439 14.7192191,3.61548772 14.7189108,3.54520351 C14.7189108,3.47437895 14.6915477,3.40799298 14.6416389,3.35789474 L14.6001318,3.31628772 C14.55057,3.26642105 14.4831258,3.23847719 14.4128296,3.23867018 C14.3426491,3.23851579 14.2753205,3.26645965 14.2258357,3.31628772 L13.4731197,4.07007719 L12.7205193,3.31628772 C12.6709574,3.26645965 12.6035903,3.23855439 12.5333712,3.23874737 C12.462574,3.23874737 12.396286,3.26626667 12.346146,3.31628772 L12.304716,3.35789474 C12.2549229,3.40745263 12.2270588,3.4749193 12.2272901,3.54520351 C12.2272901,3.61595088 12.2548458,3.68252982 12.304716,3.73255088 L13.1044118,4.53327368 L13.1126978,4.58302456 C13.1141237,4.58846667 13.1153185,4.59344561 13.1164361,4.59850175 L13.1593692,4.81016491 L11.8859067,4.81016491 C11.7398803,4.81039649 11.6215639,4.92888772 11.6213327,5.07512982 L11.6213327,5.13402807 C11.6215639,5.28027018 11.7398803,5.3987614 11.8859067,5.39899298 L13.2086227,5.39899298 L13.2086227,6.04652632 L12.1209594,6.04644912 L12.1209594,6.04644912 Z" id="Fill-18" fill="#D6B000"></path>
                    </g>
                </g>
                <rect id="Rectangle-2" fill="#FFFFFF" opacity="0.01" x="0" y="0" width="36" height="36"></rect>
            </g>
        </g>
    </g>
</svg>